<svg width="23" height="25" viewBox="0 0 23 25" fill="none" xmlns="http://www.w3.org/2000/svg">
<g clip-path="url(#clip0_92_10)">
<path fill-rule="evenodd" clip-rule="evenodd" d="M4.18659 0.595789C4.55701 0.368567 4.98467 0.253041 5.41845 0.263021C5.85223 0.273002 6.27378 0.408067 6.63271 0.652071L21.2727 10.5974C21.6716 10.8681 21.9735 11.2598 22.1344 11.7152C22.2952 12.1706 22.3066 12.6659 22.1668 13.1287C22.027 13.5915 21.7434 13.9976 21.3574 14.2876C20.9714 14.5776 20.5032 14.7363 20.0212 14.7406L12.8376 14.805L9.50378 21.1914C9.28025 21.62 8.92603 21.9659 8.49287 22.1785C8.05971 22.3912 7.57032 22.4594 7.09621 22.3732C6.62209 22.2871 6.1881 22.0511 5.85764 21.6997C5.52719 21.3483 5.3176 20.9 5.2595 20.4202L3.12064 2.80643C3.06805 2.37452 3.1406 1.93636 3.32963 1.54434C3.51866 1.15232 3.81617 0.82301 4.18659 0.595789Z" fill="#8463FF"/>
<path fill-rule="evenodd" clip-rule="evenodd" d="M6.1934 2.22998C6.07835 2.15164 5.94319 2.10821 5.80407 2.10488C5.66496 2.10156 5.52777 2.13848 5.4089 2.21123C5.29003 2.28399 5.19451 2.3895 5.13375 2.51516C5.07299 2.64082 5.04956 2.78132 5.06626 2.91986L7.12409 19.8645C7.14297 20.0182 7.21033 20.1618 7.31634 20.2743C7.42235 20.3868 7.56147 20.4623 7.71341 20.4898C7.86535 20.5174 8.02216 20.4955 8.16098 20.4274C8.29979 20.3593 8.41335 20.2485 8.48509 20.1112L11.9434 13.0941L19.8741 13.1258C20.0289 13.1249 20.1794 13.0744 20.3035 12.9815C20.4276 12.8887 20.5189 12.7584 20.5639 12.6098C20.6089 12.4612 20.6052 12.3022 20.5535 12.156C20.5017 12.0098 20.4045 11.8842 20.2763 11.7975L6.1934 2.22998Z" fill="white"/>
</g>
<defs>
<clipPath id="clip0_92_10">
<rect width="23" height="25" fill="white"/>
</clipPath>
</defs>
</svg>
