<svg width="325" height="317" viewBox="0 0 325 317" fill="none" xmlns="http://www.w3.org/2000/svg">
<path d="M114.5 303.999C141.272 303.999 163 282.271 163 255.499V207H114.5C87.728 207 66 228.727 66 255.499C66 282.271 87.728 303.999 114.5 303.999Z" fill="#0ACF83"/>
<path d="M66 158.5C66 131.728 87.728 110 114.5 110H163V207H114.5C87.728 207 66 185.272 66 158.5Z" fill="#A259FF"/>
<path d="M66 61.4999C66 34.728 87.728 13 114.5 13H163V110H114.5C87.728 110 66 88.2719 66 61.4999Z" fill="#F24E1E"/>
<path d="M163 13H211.5C238.272 13 260 34.728 260 61.4999C260 88.2719 238.272 110 211.5 110H163V13Z" fill="#FF7262"/>
<path d="M260 158.5C260 185.272 238.272 207 211.5 207C184.728 207 163 185.272 163 158.5C163 131.728 184.728 110 211.5 110C238.272 110 260 131.728 260 158.5Z" fill="#1ABCFE"/>
</svg>
