<svg width="317" height="317" viewBox="0 0 317 317" fill="none" xmlns="http://www.w3.org/2000/svg">
<g clip-path="url(#clip0_183_16)">
<path fill-rule="evenodd" clip-rule="evenodd" d="M158.494 3.94925C70.9748 3.94925 0 74.9122 0 162.443C0 232.476 45.4093 291.867 108.387 312.835C116.314 314.303 119.228 309.389 119.228 305.2C119.228 301.421 119.07 288.936 119.005 275.703C74.9066 285.292 65.6106 256.994 65.6106 256.994C58.4028 238.671 48.0126 233.798 48.0126 233.798C33.6327 223.952 49.1068 224.168 49.1068 224.168C65.0192 225.28 73.3969 240.491 73.3969 240.491C87.543 264.722 110.487 257.708 119.526 253.665C120.953 243.421 125.049 236.425 129.588 232.464C94.3813 228.468 57.373 214.873 57.373 154.135C57.373 136.836 63.5744 122.691 73.701 111.598C72.0516 107.597 66.6225 91.4853 75.2281 69.6579C75.2281 69.6579 88.5371 65.3933 118.83 85.9042C131.466 82.3998 145.021 80.633 158.483 80.5746C171.955 80.633 185.534 82.3939 198.188 85.9042C228.44 65.4051 241.737 69.6579 241.737 69.6579C250.354 91.4913 244.949 107.614 243.299 111.598C253.461 122.691 259.61 136.836 259.61 154.135C259.61 215.013 222.519 228.398 187.236 232.323C192.923 237.237 198.001 246.885 198.001 261.662C198.001 282.858 197.819 299.94 197.819 305.153C197.819 309.371 200.674 314.303 208.712 312.758C271.655 291.779 317.006 232.381 317.006 162.39C317.006 74.8706 246.043 3.89575 158.506 3.89575L158.495 3.94875L158.494 3.94925Z" fill="black"/>
</g>
<defs>
<clipPath id="clip0_183_16">
<rect width="317" height="317" fill="white"/>
</clipPath>
</defs>
</svg>
