<svg width="28" height="25" viewBox="0 0 28 25" fill="none" xmlns="http://www.w3.org/2000/svg">
<g clip-path="url(#clip0_109_249)">
<path d="M15.0024 23.462L17.5226 23.2042L20.0013 23.3549" stroke="#8463FF" stroke-width="2.2"/>
<path d="M6.80961 3.45996C7.70961 3.11996 9.48961 3.32996 9.94961 4.33996C10.4196 5.34996 10.6996 6.65996 10.7196 6.33996C10.6896 5.36996 10.7696 4.40996 10.9696 3.45996C11.1696 2.85996 11.6496 2.37996 12.2596 2.15996C12.8165 1.98829 13.4066 1.95398 13.9796 2.05996C14.5596 2.17996 15.0796 2.50996 15.4196 2.98996C15.8596 4.08996 16.0996 5.23996 16.1496 6.41996C16.1996 5.41996 16.3696 4.41996 16.6496 3.45996C16.9696 3.01996 17.4196 2.69996 17.9496 2.55996C18.5678 2.44696 19.2014 2.44696 19.8196 2.55996C20.3196 2.72996 20.7696 3.04996 21.0896 3.47996C21.4896 4.47996 21.7296 5.51996 21.7996 6.57996C21.7996 6.84996 21.9296 5.85996 22.3496 5.19996C22.4124 4.94777 22.5267 4.71132 22.6854 4.50556C22.8442 4.29979 23.0439 4.12917 23.2719 4.00446C23.4999 3.87976 23.7513 3.80368 24.0102 3.78104C24.269 3.75839 24.5298 3.78966 24.776 3.87288C25.0222 3.95611 25.2485 4.08947 25.4405 4.26455C25.6326 4.43963 25.7863 4.65262 25.8918 4.89009C25.9974 5.12755 26.0526 5.38433 26.054 5.64421C26.0553 5.90408 26.0027 6.16142 25.8996 6.39996V10.63C25.8296 11.73 25.6796 12.81 25.4496 13.88C25.1296 14.83 24.6696 15.73 24.0996 16.56C23.1934 17.5719 22.445 18.7148 21.8796 19.95C21.6054 21.1355 21.6157 22.3691 21.9096 23.55C21.1496 23.62 20.3796 23.62 19.6096 23.55C18.8796 23.43 17.9796 21.97 17.7396 21.52C17.6806 21.402 17.59 21.3029 17.4778 21.2336C17.3657 21.1643 17.2364 21.1276 17.1046 21.1276C16.9728 21.1276 16.8435 21.1643 16.7314 21.2336C16.6192 21.3029 16.5286 21.402 16.4696 21.52C16.0596 22.23 15.1396 23.52 14.5996 23.6C13.3396 23.75 10.7396 23.6 8.71961 23.6C8.71961 23.6 9.07961 21.73 8.28961 21.05C7.49961 20.38 6.73961 19.59 6.15961 19.07L4.59961 17.35C3.50345 16.3311 2.70204 15.0357 2.27961 13.6C1.87961 11.84 1.92961 11 2.27961 10.3C2.64151 9.70532 3.21192 9.26682 3.87961 9.06996C4.41961 8.96996 4.97961 9.00996 5.51961 9.18996C5.88961 9.33996 6.19961 9.58996 6.43961 9.91996C6.86961 10.5 7.01961 10.78 6.82961 10.14C6.63961 9.50996 6.22961 9.03996 6.02961 8.26996C5.62961 7.36996 5.37961 6.38996 5.30961 5.40996C5.38961 4.50996 6.00961 3.76996 6.86961 3.52996" fill="white"/>
<path d="M6.80961 3.45996C7.70961 3.11996 9.48961 3.32996 9.94961 4.33996C10.4196 5.34996 10.6996 6.65996 10.7196 6.33996C10.6896 5.36996 10.7696 4.40996 10.9696 3.45996C11.1696 2.85996 11.6496 2.37996 12.2596 2.15996C12.8165 1.98829 13.4066 1.95398 13.9796 2.05996C14.5596 2.17996 15.0796 2.50996 15.4196 2.98996C15.8596 4.08996 16.0996 5.23996 16.1496 6.41996C16.1996 5.41996 16.3696 4.41996 16.6496 3.45996C16.9696 3.01996 17.4196 2.69996 17.9496 2.55996C18.5678 2.44696 19.2014 2.44696 19.8196 2.55996C20.3196 2.72996 20.7696 3.04996 21.0896 3.47996C21.4896 4.47996 21.7296 5.51996 21.7996 6.57996C21.7996 6.84996 21.9296 5.85996 22.3496 5.19996C22.4124 4.94777 22.5267 4.71132 22.6854 4.50556C22.8442 4.29979 23.0439 4.12917 23.2719 4.00446C23.4999 3.87976 23.7513 3.80368 24.0102 3.78104C24.269 3.75839 24.5298 3.78966 24.776 3.87288C25.0222 3.95611 25.2485 4.08947 25.4405 4.26455C25.6326 4.43963 25.7863 4.65262 25.8918 4.89009C25.9974 5.12755 26.0526 5.38433 26.054 5.64421C26.0553 5.90408 26.0027 6.16142 25.8996 6.39996V10.63C25.8296 11.73 25.6796 12.81 25.4496 13.88C25.1296 14.83 24.6696 15.73 24.0996 16.56C23.1935 17.572 22.4451 18.7148 21.8796 19.95C21.6054 21.1355 21.6157 22.3691 21.9096 23.55C21.1496 23.62 20.3796 23.62 19.6096 23.55C18.8796 23.43 17.9796 21.97 17.7396 21.52C17.6806 21.402 17.59 21.3029 17.4778 21.2336C17.3657 21.1643 17.2364 21.1276 17.1046 21.1276C16.9728 21.1276 16.8435 21.1643 16.7314 21.2336C16.6192 21.3029 16.5286 21.402 16.4696 21.52C16.0596 22.23 15.1396 23.52 14.5996 23.6C13.3396 23.75 10.7396 23.6 8.71961 23.6C8.71961 23.6 9.07961 21.73 8.28961 21.05C7.49961 20.38 6.73961 19.59 6.15961 19.07L4.59961 17.35C3.50345 16.3311 2.70204 15.0357 2.27961 13.6C1.87961 11.84 1.92961 11 2.27961 10.3C2.64151 9.70532 3.21192 9.26682 3.87961 9.06996C4.41961 8.96996 4.97961 9.00996 5.51961 9.18996C5.88961 9.33996 6.19961 9.58996 6.43961 9.91996C6.86961 10.5 7.01961 10.78 6.82961 10.14C6.63961 9.50996 6.22961 9.03996 6.02961 8.26996C5.62961 7.36996 5.37961 6.38996 5.30961 5.40996C5.34961 4.50996 5.94961 3.72996 6.80961 3.45996Z" stroke="#8463FF" stroke-width="2.25" stroke-linejoin="round"/>
<path d="M16.1223 10.2276C15.9576 12.8681 15.786 14.1947 15.4104 16.4274M19.7982 10.1262C19.5577 13.0607 19.3789 14.6674 18.9676 17.3593" stroke="#8463FF" stroke-linecap="round"/>
<path d="M12.5059 9.8125C12.3663 12.5388 12.1686 13.991 11.7346 16.5289" stroke="#8463FF" stroke-linecap="round"/>
<path d="M14.7842 12.5825C17.1315 13.9761 18.3244 14.8275 20.3679 16.3939" stroke="#8463FF" stroke-linecap="round"/>
<rect x="14.0479" y="20.0693" width="6" height="2.41307" transform="rotate(-4.97373 14.0479 20.0693)" fill="white"/>
<path d="M14 22.9999C15.9007 21.5697 21 22.5 21 22.5" stroke="#8463FF"/>
</g>
<defs>
<clipPath id="clip0_109_249">
<rect width="28" height="25" fill="white"/>
</clipPath>
</defs>
</svg>
