<svg width="28" height="28" viewBox="0 0 28 28" fill="none" xmlns="http://www.w3.org/2000/svg">
<g clip-path="url(#clip0_109_245)">
<path d="M8.32003 14.5699C8.17003 13.9899 8.01003 13.2199 7.67003 12.1099C7.34003 11.0099 7.13003 10.7499 6.93003 10.1599C6.72003 9.56988 6.45003 9.01988 6.13003 8.28988C5.83911 7.54254 5.5953 6.77771 5.40003 5.99988C5.27003 5.34988 5.43003 4.66988 5.85003 4.13988C6.42003 3.58988 7.24003 3.37988 8.01003 3.58988C8.61003 3.84988 9.11003 4.28988 9.47003 4.83988C9.94003 5.58988 10.32 6.38988 10.61 7.21988C11.06 8.36988 11.38 9.54988 11.58 10.7599L11.72 11.4799V9.63988C11.72 8.03988 11.62 6.73988 11.72 4.96988C11.72 4.76988 11.82 4.02988 11.85 3.82988C11.89 3.13988 12.3 2.52988 12.91 2.22988C13.61 1.92988 14.43 1.92988 15.13 2.22988C15.77 2.52988 16.19 3.12988 16.23 3.82988C16.23 3.99988 16.37 5.40988 16.37 5.58988V11.3699C16.41 9.26988 16.59 7.17988 16.91 5.10988C17.1 4.45988 17.56 3.92988 18.17 3.62988C18.92 3.32988 19.77 3.47988 20.39 4.01988C20.85 4.51988 21.12 5.15988 21.15 5.83988V11.4799C21.29 11.0299 21.45 10.6199 21.58 10.2999C21.71 9.97988 21.96 9.32988 22.15 8.93988C22.35 8.55988 22.56 8.18988 22.8 7.83988C23.05 7.43988 23.42 7.12988 23.87 6.94988C24.0669 6.87481 24.2767 6.83961 24.4873 6.84633C24.6978 6.85304 24.905 6.90154 25.0966 6.989C25.2883 7.07646 25.4607 7.20114 25.6038 7.3558C25.7468 7.51045 25.8577 7.692 25.93 7.88988C26.03 8.46988 26.03 9.05988 25.93 9.63988C25.83 10.5199 25.63 11.3999 25.37 12.2599C25.17 12.9599 24.94 14.2099 24.83 14.7899C24.73 15.3899 24.47 16.9899 24.26 17.6899C23.96 18.5199 23.53 19.2999 23.01 20.0199C22.2363 20.8758 21.5958 21.8433 21.11 22.8899C20.8785 23.895 20.8923 24.9411 21.15 25.9399C20.5019 26.009 19.8482 26.009 19.2 25.9399C18.58 25.8399 17.82 24.6099 17.61 24.2199C17.5609 24.1184 17.4842 24.0329 17.3887 23.973C17.2932 23.9132 17.1827 23.8814 17.07 23.8814C16.9573 23.8814 16.8469 23.9132 16.7514 23.973C16.6559 24.0329 16.5792 24.1184 16.53 24.2199C16.17 24.8199 15.4 25.9199 14.86 25.9899C13.8 26.1099 11.61 25.9899 9.88003 25.9899C9.88003 25.9899 10.18 24.3899 9.51003 23.8299C8.85003 23.2599 8.20003 22.5899 7.71003 22.1499L6.39003 20.6799C5.94003 20.1099 5.39003 18.9499 4.42003 17.5099C3.86003 16.7099 2.83003 15.7799 2.39003 15.0099C2.01639 14.3771 1.90853 13.622 2.09003 12.9099C2.21901 12.454 2.51195 12.062 2.91252 11.8091C3.3131 11.5562 3.79303 11.4603 4.26003 11.5399C5.00003 11.5899 5.69003 11.8899 6.23003 12.3999C6.65003 12.7699 7.05003 13.1599 7.42003 13.5899C7.67003 13.8899 7.74003 14.0299 8.02003 14.3899C8.31003 14.7599 8.50003 15.1299 8.36003 14.5899" fill="white"/>
<path d="M8.32003 14.5699C8.17003 13.9899 8.01003 13.2199 7.67003 12.1099C7.34003 11.0099 7.13003 10.7499 6.93003 10.1599C6.72003 9.56988 6.45003 9.01988 6.13003 8.28988C5.83911 7.54254 5.5953 6.77771 5.40003 5.99988C5.27003 5.34988 5.43003 4.66988 5.85003 4.13988C6.42003 3.58988 7.24003 3.37988 8.01003 3.58988C8.61003 3.84988 9.11003 4.28988 9.47003 4.83988C9.94003 5.58988 10.32 6.38988 10.61 7.21988C11.06 8.36988 11.38 9.54988 11.58 10.7599L11.72 11.4799V9.63988C11.72 8.03988 11.62 6.73988 11.72 4.96988C11.72 4.76988 11.82 4.02988 11.85 3.82988C11.89 3.13988 12.3 2.52988 12.91 2.22988C13.61 1.92988 14.43 1.92988 15.13 2.22988C15.77 2.52988 16.19 3.12988 16.23 3.82988C16.23 3.99988 16.37 5.40988 16.37 5.58988V11.3699C16.41 9.26988 16.59 7.17988 16.91 5.10988C17.1 4.45988 17.56 3.92988 18.17 3.62988C18.92 3.32988 19.77 3.47988 20.39 4.01988C20.85 4.51988 21.12 5.15988 21.15 5.83988V11.4799C21.29 11.0299 21.45 10.6199 21.58 10.2999C21.71 9.97988 21.96 9.32988 22.15 8.93988C22.35 8.55988 22.56 8.18988 22.8 7.83988C23.05 7.43988 23.42 7.12988 23.87 6.94988C24.0669 6.87481 24.2767 6.83961 24.4873 6.84633C24.6978 6.85304 24.905 6.90154 25.0966 6.989C25.2883 7.07646 25.4607 7.20114 25.6038 7.3558C25.7468 7.51045 25.8577 7.692 25.93 7.88988C26.03 8.46988 26.03 9.05988 25.93 9.63988C25.83 10.5199 25.63 11.3999 25.37 12.2599C25.17 12.9599 24.94 14.2099 24.83 14.7899C24.73 15.3899 24.47 16.9899 24.26 17.6899C23.96 18.5199 23.53 19.2999 23.01 20.0199C22.2363 20.8758 21.5958 21.8433 21.11 22.8899C20.8785 23.895 20.8923 24.9411 21.15 25.9399C20.5019 26.009 19.8482 26.009 19.2 25.9399C18.58 25.8399 17.82 24.6099 17.61 24.2199C17.5609 24.1184 17.4842 24.0329 17.3887 23.973C17.2932 23.9132 17.1827 23.8814 17.07 23.8814C16.9573 23.8814 16.8469 23.9132 16.7514 23.973C16.6559 24.0329 16.5792 24.1184 16.53 24.2199C16.17 24.8199 15.4 25.9199 14.86 25.9899C13.8 26.1099 11.61 25.9899 9.88003 25.9899C9.88003 25.9899 10.18 24.3899 9.51003 23.8299C8.85003 23.2599 8.20003 22.5899 7.71003 22.1499L6.39003 20.6799C5.94003 20.1099 5.39003 18.9499 4.42003 17.5099C3.86003 16.7099 2.83003 15.7799 2.39003 15.0099C2.01639 14.3771 1.90853 13.622 2.09003 12.9099C2.21901 12.454 2.51195 12.062 2.91252 11.8091C3.3131 11.5562 3.79303 11.4603 4.26003 11.5399C5.00003 11.5899 5.69003 11.8899 6.23003 12.3999C6.65003 12.7699 7.05003 13.1599 7.42003 13.5899C7.67003 13.8899 7.74003 14.0299 8.02003 14.3899C8.31003 14.7599 8.50003 15.1299 8.36003 14.5899" stroke="#8463FF" stroke-width="2.25" stroke-linecap="round" stroke-linejoin="round"/>
<path d="M16.1223 14.2276C15.9576 16.8681 15.786 18.1947 15.4104 20.4274M19.7982 14.1262C19.5577 17.0607 19.3789 18.6674 18.9676 21.3593" stroke="#8463FF" stroke-linecap="round"/>
<path d="M12.5059 13.8125C12.3663 16.5388 12.1686 17.991 11.7346 20.5289" stroke="#8463FF" stroke-linecap="round"/>
<path d="M14.7842 16.5825C17.1315 17.9761 18.3244 18.8275 20.3679 20.3939" stroke="#8463FF" stroke-linecap="round"/>
<rect x="13" y="22.1528" width="6.2079" height="2.41307" transform="rotate(-1.459 13 22.1528)" fill="white"/>
<path d="M13 25.5C14.9007 24.0698 20 24.5 20 24.5" stroke="#8463FF"/>
</g>
<defs>
<clipPath id="clip0_109_245">
<rect width="28" height="28" fill="white"/>
</clipPath>
</defs>
</svg>
