<svg width="1753" height="795" viewBox="0 0 1753 795" fill="none" xmlns="http://www.w3.org/2000/svg">
<path d="M1047.84 516.798C1074.1 493.293 1089.18 479.421 1112.29 453.388" stroke="#577E0D" stroke-width="8"/>
<path d="M761.569 532.078C730.657 626.67 580.276 716.814 471 723.5C257.165 736.583 16.4953 532.5 16.4953 532.5C16.4953 532.5 7.49786 525.5 0 525.5" stroke="#8463FF" stroke-width="18"/>
<path d="M776.31 474.524L816.458 270.553C816.458 270.553 820.685 228.279 822.798 198.687C824.911 169.095 830.598 129.992 864.003 77.1498C909.434 5.28391 1011.93 -10.541 1076.37 43.3307C1147.16 102.514 1177.5 240.5 1177.5 240.5" stroke="#8463FF" stroke-width="18"/>
<path d="M1170.4 355.1C1170.4 355.1 1152.44 409 1104.9 461.842C1057.35 514.684 1003.12 540.126 991.845 612.971C974.034 728.077 1090.83 795.182 1199.66 782.5C1308.48 769.818 1401.79 738.199 1401.79 612.971C1401.79 562.243 1384.05 532.51 1395.45 482.979C1414.12 401.815 1449.94 338.444 1530.68 318.111C1633.17 292.302 1698.67 461.842 1698.67 461.842" stroke="#8463FF" stroke-width="18"/>
<line y1="-1" x2="113.562" y2="-1" transform="matrix(0.936945 -0.349477 0.349302 0.93701 1644.42 480.629)" stroke="white" stroke-width="2"/>
<ellipse cx="1697.62" cy="458.672" rx="10.5655" ry="10.5685" fill="white"/>
<ellipse cx="1697.62" cy="458.672" rx="8.21758" ry="8.21992" fill="#8463FF"/>
<ellipse cx="1748.33" cy="439.649" rx="4.22618" ry="4.22739" fill="white"/>
<ellipse cx="1748.33" cy="439.648" rx="3.28703" ry="3.28797" fill="#8463FF"/>
<ellipse cx="1644.79" cy="477.695" rx="4.22618" ry="4.22739" fill="white"/>
<ellipse cx="1644.79" cy="477.695" rx="3.28703" ry="3.28797" fill="#8463FF"/>
<path d="M1701.9 488.507L1701.9 488.506L1702.06 487.847C1702.91 484.21 1703.68 480.915 1704.26 478.486C1704.56 477.199 1704.81 476.154 1704.98 475.43C1705.07 475.069 1705.13 474.787 1705.18 474.594C1705.21 474.498 1705.22 474.423 1705.24 474.371C1705.24 474.346 1705.25 474.323 1705.26 474.305C1705.26 474.297 1705.26 474.285 1705.27 474.272C1705.27 474.267 1705.27 474.252 1705.28 474.235C1705.28 474.228 1705.29 474.208 1705.31 474.185C1705.31 474.173 1705.34 474.144 1705.35 474.127C1705.38 474.102 1705.45 474.047 1705.51 474.022C1705.62 473.998 1705.79 474.024 1705.85 474.054C1705.88 474.075 1705.93 474.113 1705.94 474.129C1705.97 474.156 1705.98 474.181 1705.99 474.187C1706 474.204 1706.01 474.219 1706.01 474.223L1706.01 474.223C1706.01 474.234 1706.02 474.245 1706.02 474.25C1706.02 474.263 1706.03 474.278 1706.04 474.295C1706.05 474.328 1706.07 474.377 1706.09 474.439C1706.14 474.563 1706.21 474.746 1706.3 474.98C1706.48 475.449 1706.74 476.127 1707.05 476.964C1707.68 478.638 1708.54 480.948 1709.49 483.491L1712.93 492.723L1713.02 492.963L1712.84 493.144L1712.31 493.679C1712.31 493.679 1712.31 493.68 1712.31 493.68C1711.97 494.028 1711.62 494.57 1711.35 495.191C1711.08 495.809 1710.89 496.477 1710.83 497.066C1710.79 497.578 1710.77 497.811 1710.82 498.076C1710.86 498.355 1710.98 498.683 1711.23 499.369C1711.45 499.961 1711.6 500.316 1711.75 500.587C1711.89 500.848 1712.03 501.039 1712.26 501.293C1713.29 502.401 1714.87 503.132 1716.38 503.167L1716.38 503.167C1716.92 503.181 1717.68 503.015 1718.44 502.733C1719.19 502.451 1719.88 502.077 1720.27 501.716L1720.28 501.716C1721.4 500.697 1722.11 499.11 1722.17 497.596C1722.17 497.257 1722.16 497.019 1722.09 496.73C1722.02 496.429 1721.9 496.064 1721.68 495.472C1721.43 494.786 1721.3 494.464 1721.15 494.222C1721.01 493.992 1720.85 493.825 1720.48 493.467C1720.05 493.06 1719.47 492.68 1718.86 492.391C1718.25 492.1 1717.63 491.916 1717.14 491.877C1717.14 491.877 1717.14 491.877 1717.14 491.877L1716.39 491.821L1716.14 491.802L1716.05 491.562L1712.59 482.292L1709.13 473.022L1708.67 471.786L1709.74 472.558L1721.4 480.97L1721.4 480.97C1727.79 485.585 1733.25 489.58 1733.52 489.805L1733.53 489.812L1733.53 489.819C1733.72 489.995 1733.87 490.169 1734 490.383C1734.12 490.594 1734.21 490.827 1734.29 491.108L1734.29 491.108L1734.29 491.114C1734.3 491.142 1734.31 491.17 1734.32 491.198C1734.36 491.336 1734.4 491.478 1734.41 491.619C1734.44 491.81 1734.42 491.995 1734.37 492.228C1734.28 492.624 1734.05 493.237 1733.62 494.394C1733.58 494.497 1733.54 494.605 1733.5 494.717L1733.5 494.717C1732.15 498.329 1731.69 503.098 1732.31 507.081C1732.31 507.106 1732.32 507.131 1732.32 507.155C1732.35 507.363 1732.38 507.562 1732.38 507.722C1732.39 507.921 1732.34 508.164 1732.12 508.341C1731.94 508.483 1731.7 508.531 1731.49 508.56C1731.28 508.589 1731.01 508.609 1730.68 508.633C1730.64 508.636 1730.6 508.639 1730.56 508.642L1730.56 508.642L1730.56 508.642C1729.07 508.736 1727.29 509.278 1721.66 511.378C1716.03 513.479 1714.33 514.234 1713.14 515.138L1713.14 515.138L1713.14 515.141C1713.11 515.164 1713.08 515.186 1713.05 515.208C1712.78 515.408 1712.56 515.57 1712.39 515.685C1712.21 515.803 1711.99 515.924 1711.77 515.933C1711.48 515.945 1711.29 515.789 1711.16 515.638C1711.06 515.516 1710.95 515.346 1710.84 515.167C1710.83 515.146 1710.81 515.125 1710.8 515.103C1708.66 511.687 1705.19 508.386 1701.81 506.537L1701.81 506.537C1701.7 506.48 1701.6 506.425 1701.51 506.372C1700.42 505.78 1699.85 505.466 1699.52 505.226C1699.33 505.086 1699.19 504.956 1699.09 504.796C1699.01 504.677 1698.95 504.544 1698.89 504.415C1698.87 504.388 1698.86 504.362 1698.85 504.335L1698.85 504.335L1698.84 504.326C1698.75 504.113 1698.67 503.889 1698.61 503.684C1698.56 503.491 1698.52 503.273 1698.54 503.091L1698.54 503.091C1698.55 503.047 1698.56 502.988 1698.57 502.945L1698.57 502.943C1698.58 502.88 1698.6 502.794 1698.62 502.687C1698.67 502.472 1698.74 502.168 1698.83 501.786C1699 501.022 1699.25 499.941 1699.55 498.623C1700.16 495.987 1700.99 492.402 1701.9 488.507Z" fill="#FCFFFF" stroke="black" stroke-width="0.8"/>
<path d="M1714.44 495.969L1714.44 495.969L1714.45 495.964C1714.71 495.612 1715.11 495.37 1715.62 495.179C1716.3 494.925 1716.96 494.904 1717.54 495.166C1718.11 495.428 1718.53 495.942 1718.78 496.625C1719.04 497.309 1719.06 497.971 1718.8 498.545C1718.54 499.118 1718.02 499.537 1717.34 499.791C1716.83 499.982 1716.37 500.061 1715.94 499.966L1715.94 499.966L1715.93 499.964C1715.51 499.863 1715.15 499.694 1714.85 499.417C1714.55 499.142 1714.34 498.784 1714.17 498.345C1714.01 497.906 1713.94 497.495 1713.98 497.092C1714.03 496.685 1714.19 496.321 1714.44 495.969Z" fill="#FCFFFF" stroke="black" stroke-width="0.8"/>
<path d="M1714.72 517.915L1714.72 517.914L1715.57 517.232L1715.62 517.192L1715.68 517.169L1722.79 514.501L1722.79 514.501L1729.91 511.846L1729.97 511.823L1730.04 511.821L1731.15 511.786C1731.15 511.786 1731.15 511.786 1731.15 511.786C1732.74 511.73 1733.97 512 1735.41 512.701L1735.41 512.701L1735.41 512.703C1736.15 513.073 1736.9 513.596 1737.51 514.133C1738.11 514.658 1738.63 515.245 1738.82 515.755C1739.11 516.534 1738.96 517.444 1738.44 518.108C1738.39 518.17 1738.33 518.241 1738.24 518.318C1738.15 518.392 1738.04 518.462 1737.9 518.537C1737.63 518.684 1737.18 518.879 1736.4 519.188C1734.83 519.809 1731.85 520.922 1726.04 523.09L1726.03 523.095L1726.01 523.099C1720.2 525.268 1717.22 526.38 1715.63 526.937C1714.84 527.214 1714.37 527.36 1714.07 527.428C1713.91 527.463 1713.78 527.481 1713.67 527.483C1713.55 527.485 1713.46 527.469 1713.38 527.454C1712.56 527.291 1711.84 526.703 1711.55 525.925C1711.36 525.414 1711.37 524.632 1711.48 523.845C1711.59 523.038 1711.82 522.149 1712.13 521.386L1712.13 521.386L1712.13 521.382C1712.76 519.913 1713.5 518.908 1714.72 517.915Z" fill="#FCFFFF" stroke="black" stroke-width="0.8"/>
<ellipse cx="1439.82" cy="378.351" rx="10.5655" ry="10.5685" fill="white"/>
<ellipse cx="1439.82" cy="378.351" rx="8.21758" ry="8.21992" fill="#8463FF"/>
<ellipse cx="1204.72" cy="783.568" rx="10.5655" ry="10.5685" fill="white"/>
<ellipse cx="1204.73" cy="783.568" rx="8.21758" ry="8.21992" fill="#8463FF"/>
<ellipse cx="1127.75" cy="433.568" rx="10.5655" ry="10.5685" fill="white"/>
<ellipse cx="1127.75" cy="433.568" rx="8.21758" ry="8.21992" fill="#8463FF"/>
<ellipse cx="977.053" cy="10.5685" rx="10.5655" ry="10.5685" fill="white"/>
<ellipse cx="977.053" cy="10.5684" rx="8.21758" ry="8.21992" fill="#8463FF"/>
<ellipse cx="789.844" cy="403.568" rx="10.5655" ry="10.5685" fill="white"/>
<ellipse cx="789.845" cy="403.568" rx="8.21758" ry="8.21992" fill="#8463FF"/>
<ellipse cx="448.78" cy="729.225" rx="10.5655" ry="10.5685" fill="white"/>
<ellipse cx="448.78" cy="729.225" rx="8.21758" ry="8.21992" fill="#8463FF"/>
<path d="M898.939 306.873L898.435 338.903L809.051 342.181V302.459L821.785 303.216L804.767 222.383L777.41 306.368L788.502 306.873L787.746 338.903L698.365 342.181V302.459L726.227 303.972L696.6 196.784L672.269 197.541V157.818L781.443 162.232L780.687 194.262L736.312 195.776L749.169 283.543L796.699 191.614H818.129L846.872 276.86L877.506 193.758L840.318 196.784L838.299 157.062L947.473 156.053L948.231 188.083L906.754 191.362L870.322 305.485L898.939 306.873ZM1082.49 298.045C1079.3 306.368 1074.84 313.598 1069.13 319.735C1063.5 325.788 1057.11 330.832 1049.97 334.868C1042.82 338.819 1035.26 341.761 1027.27 343.695C1019.29 345.628 1011.43 346.595 1003.7 346.595C992.942 346.595 983.361 344.914 974.956 341.551C966.552 338.188 959.41 333.648 953.525 327.932C947.643 322.215 943.019 315.532 939.658 307.881C936.381 300.147 934.49 291.95 933.986 283.291C933.986 270.092 936.17 258.827 940.54 249.496C944.994 240.08 951.004 232.429 958.568 226.545C966.215 220.66 975.126 216.372 985.294 213.682C995.463 210.908 1006.26 209.521 1017.69 209.521C1021.9 209.521 1026.22 209.815 1030.68 210.403C1035.22 210.992 1039.63 212.043 1043.92 213.556C1048.2 215.069 1052.28 217.171 1056.14 219.861C1060.09 222.467 1063.62 225.872 1066.73 230.076C1069.93 234.195 1072.62 239.155 1074.8 244.956C1076.99 250.757 1078.5 257.608 1079.34 265.511L975.84 284.048C976.512 289.849 977.689 295.523 979.37 301.072C981.133 306.62 983.487 311.538 986.429 315.826C989.371 320.029 992.984 323.392 997.27 325.914C1001.64 328.352 1006.81 329.487 1012.78 329.319C1019.25 328.562 1024.96 326.629 1029.92 323.518C1032.02 322.173 1034.04 320.534 1035.97 318.6C1037.91 316.583 1039.59 314.187 1041.02 311.412C1042.45 308.638 1043.49 305.401 1044.17 301.702C1044.84 298.003 1044.97 293.758 1044.55 288.966L1082.49 298.045ZM1034.71 257.44C1034.38 253.489 1033.66 250.042 1032.57 247.1C1031.48 244.157 1030.09 241.635 1028.41 239.533C1026.81 237.432 1025.01 235.708 1022.99 234.363C1021.05 232.934 1019.08 231.799 1017.06 230.958C1012.36 229.025 1007.06 228.142 1001.18 228.31C995.633 228.983 991.135 230.58 987.69 233.102C984.243 235.54 981.554 238.609 979.622 242.308C977.772 245.923 976.512 249.958 975.84 254.414C975.167 258.869 974.83 263.409 974.83 268.033L1034.71 257.44ZM1243.61 273.203C1243.61 282.282 1242.43 290.395 1240.08 297.541C1237.72 304.687 1234.53 311.034 1230.49 316.583C1226.46 322.047 1221.8 326.755 1216.5 330.706C1211.21 334.573 1205.62 337.768 1199.74 340.29C1193.94 342.728 1188.01 344.493 1181.96 345.586C1175.91 346.763 1170.15 347.352 1164.69 347.352C1156.37 347.352 1148.26 345.923 1140.36 343.064C1132.54 340.29 1125.52 336.002 1119.3 330.202C1113.17 324.401 1108.17 317.087 1104.3 308.26C1100.52 299.433 1098.5 288.966 1098.25 276.86C1098.25 271.984 1098.33 266.772 1098.5 261.223C1098.76 255.675 1099.05 250.042 1099.39 244.325C1099.72 238.609 1100.1 232.934 1100.52 227.301C1100.94 221.585 1101.4 216.12 1101.91 210.908C1102.92 198.802 1104.13 186.612 1105.56 174.338L1078.71 175.599L1080.48 150L1152.71 156.81C1151.62 162.19 1150.44 168.075 1149.18 174.464C1148.09 179.928 1146.87 186.276 1145.53 193.506C1144.27 200.652 1143.05 208.302 1141.87 216.456C1147.67 213.094 1153.64 210.487 1159.77 208.638C1165.99 206.789 1172.34 205.864 1178.81 205.864C1187.88 205.864 1196.37 207.209 1204.27 209.899C1212.17 212.505 1219.02 216.583 1224.82 222.131C1230.71 227.596 1235.29 234.573 1238.56 243.064C1241.93 251.471 1243.61 261.517 1243.61 273.203ZM1135.19 287.201C1135.19 293.085 1136.03 298.634 1137.71 303.846C1139.39 308.974 1141.62 313.472 1144.39 317.339C1147.25 321.206 1150.53 324.275 1154.22 326.545C1158.01 328.73 1161.91 329.823 1165.95 329.823C1176.29 329.823 1184.14 325.242 1189.52 316.078C1194.9 306.915 1197.72 292.623 1197.97 273.203C1198.05 263.451 1197.17 255.549 1195.32 249.496C1193.47 243.359 1191.08 238.567 1188.14 235.12C1185.28 231.589 1182.13 229.193 1178.68 227.932C1175.24 226.671 1172.04 225.956 1169.1 225.788C1166.91 225.704 1164.52 225.998 1161.91 226.671C1159.31 227.343 1156.62 228.394 1153.85 229.824C1151.07 231.169 1148.34 232.934 1145.65 235.12C1143.05 237.221 1140.61 239.702 1138.34 242.56C1137.42 250.378 1136.66 258.07 1136.07 265.637C1135.48 273.203 1135.19 280.391 1135.19 287.201ZM509.39 487.782C509.39 500.225 507.751 511.28 504.474 520.947C501.28 530.532 496.867 538.896 491.236 546.043C485.605 553.188 478.924 559.2 471.192 564.076C463.544 568.951 455.223 572.903 446.23 575.93C437.322 578.955 427.95 581.1 418.117 582.361C408.368 583.705 398.535 584.378 388.618 584.378C378.448 584.378 366.346 584.043 352.31 583.368C338.359 582.782 322.726 581.646 305.413 579.964L314.994 533.685C321.045 535.281 327.391 536.67 334.03 537.845C340.67 538.938 347.226 539.822 353.697 540.495L345.755 442.89C340.544 443.899 335.249 444.993 329.87 446.168C324.491 447.345 318.944 448.648 313.229 450.078L305.413 409.725C314.91 406.866 324.281 404.555 333.526 402.789C342.771 401.024 351.512 399.721 359.748 398.881C367.985 397.955 375.506 397.366 382.314 397.115C389.206 396.778 395.005 396.61 399.711 396.61C415.596 396.61 430.22 398.292 443.583 401.654C457.03 404.932 468.628 410.23 478.377 417.544C488.127 424.773 495.733 434.188 501.196 445.791C506.659 457.307 509.39 471.306 509.39 487.782ZM407.402 543.521C420.933 543.521 432.783 541.881 442.953 538.603C453.206 535.323 461.737 531.121 468.544 525.991C475.436 520.78 480.605 515.021 484.051 508.716C487.496 502.328 489.219 496.021 489.219 489.8C489.219 483.664 488.169 477.485 486.068 471.264C484.051 464.959 480.605 459.241 475.73 454.113C470.856 448.985 464.384 444.697 456.316 441.252C448.331 437.804 438.414 435.828 426.564 435.324C423.118 435.156 419.126 435.156 414.587 435.324C410.721 435.491 406.057 435.745 400.594 436.08C395.131 436.417 388.996 436.964 382.188 437.72L377.524 542.512C381.81 542.847 385.76 543.1 389.374 543.268C393.072 543.352 396.266 543.436 398.955 543.521C402.065 543.605 404.88 543.605 407.402 543.521ZM671.513 536.837C668.32 545.159 663.866 552.39 658.149 558.528C652.518 564.579 646.131 569.623 638.988 573.659C631.843 577.61 624.279 580.553 616.295 582.486C608.31 584.42 600.453 585.387 592.72 585.387C581.963 585.387 572.382 583.705 563.977 580.343C555.573 576.979 548.428 572.44 542.546 566.724C536.664 561.008 532.04 554.324 528.679 546.674C525.4 538.938 523.509 530.742 523.006 522.083C523.006 508.884 525.19 497.619 529.561 488.287C534.015 478.872 540.025 471.222 547.588 465.336C555.236 459.452 564.146 455.164 574.315 452.475C584.484 449.699 595.285 448.313 606.714 448.313C610.917 448.313 615.246 448.606 619.7 449.195C624.238 449.783 628.65 450.835 632.936 452.347C637.223 453.861 641.298 455.962 645.166 458.652C649.115 461.26 652.646 464.664 655.755 468.868C658.949 472.986 661.638 477.946 663.822 483.748C666.008 489.548 667.52 496.4 668.362 504.303L564.86 522.839C565.533 528.641 566.709 534.315 568.389 539.864C570.154 545.413 572.508 550.329 575.45 554.617C578.39 558.821 582.004 562.183 586.291 564.707C590.661 567.143 595.829 568.278 601.798 568.111C608.268 567.355 613.985 565.421 618.942 562.311C621.044 560.966 623.061 559.326 624.993 557.392C626.926 555.375 628.608 552.979 630.036 550.203C631.466 547.43 632.515 544.194 633.188 540.495C633.86 536.795 633.987 532.55 633.567 527.757L671.513 536.837ZM623.733 496.232C623.398 492.28 622.682 488.834 621.591 485.891C620.498 482.948 619.111 480.426 617.43 478.325C615.832 476.224 614.027 474.5 612.008 473.155C610.075 471.725 608.101 470.591 606.084 469.749C601.377 467.816 596.083 466.934 590.199 467.102C584.651 467.774 580.155 469.372 576.711 471.894C573.264 474.333 570.575 477.401 568.642 481.098C566.793 484.714 565.533 488.75 564.86 493.205C564.188 497.661 563.851 502.2 563.851 506.825L623.733 496.232ZM821.911 450.835L809.43 493.71C805.311 491.523 800.732 489.381 795.689 487.278C790.647 485.177 785.437 483.327 780.057 481.729C774.761 480.133 769.425 478.872 764.046 477.946C758.752 476.938 753.751 476.434 749.044 476.434C742.489 476.434 737.152 477.443 733.033 479.46C728.916 481.394 726.857 484.253 726.857 488.036C726.857 490.474 727.781 492.575 729.63 494.341C731.479 496.021 734.251 497.619 737.949 499.131C741.731 500.646 746.439 502.116 752.07 503.545C757.784 504.975 764.425 506.613 771.989 508.463C778.796 510.061 785.183 511.869 791.151 513.886C797.117 515.819 802.288 518.3 806.658 521.326C811.028 524.353 814.473 528.052 816.994 532.424C819.515 536.795 820.776 542.133 820.776 548.438C820.776 555.164 819.348 560.838 816.49 565.463C813.717 570.086 809.809 573.869 804.767 576.812C799.722 579.671 793.756 581.73 786.865 582.991C780.057 584.252 772.619 584.883 764.55 584.883C754.717 584.883 746.271 584.126 739.21 582.612C732.235 581.1 726.436 579.46 721.813 577.694C717.275 575.844 713.788 574.164 711.351 572.65C708.997 571.137 707.527 570.381 706.939 570.381L704.417 590.808L677.816 581.73L692.188 540.746C694.793 542.428 697.944 544.194 701.643 546.043C705.341 547.893 709.29 549.743 713.493 551.592C717.696 553.44 722.066 555.247 726.604 557.013C731.228 558.695 735.765 560.207 740.219 561.552C744.674 562.815 748.918 563.823 752.951 564.579C756.987 565.337 760.601 565.714 763.794 565.714C765.306 565.714 766.988 565.589 768.837 565.337C770.686 565.084 772.409 564.621 774.005 563.949C775.687 563.192 777.073 562.183 778.166 560.922C779.259 559.577 779.804 557.811 779.804 555.626C779.804 552.937 778.838 550.624 776.905 548.691C774.973 546.674 772.619 544.95 769.846 543.521C767.072 542.091 764.088 540.914 760.894 539.99C757.784 538.98 754.97 538.098 752.449 537.342C748.414 536.249 743.959 534.988 739.085 533.559C734.21 532.045 729.251 530.321 724.208 528.387C719.166 526.37 714.291 524.1 709.585 521.578C704.878 519.056 700.677 516.157 696.979 512.876C693.281 509.598 690.297 505.941 688.027 501.907C685.843 497.87 684.75 493.331 684.75 488.287C684.75 483.159 685.969 478.325 688.406 473.786C690.843 469.161 694.372 465.127 698.996 461.679C703.701 458.233 709.46 455.499 716.268 453.482C723.159 451.381 730.974 450.33 739.715 450.33C747.951 450.33 755.473 451.128 762.28 452.726C769.172 454.324 775.14 456.088 780.183 458.021C786.067 460.208 791.361 462.73 796.068 465.589L795.564 445.665L821.911 450.835ZM939.279 551.339L935.121 583.622L841.074 580.974L837.039 558.023L875.239 555.626L874.985 483.622L835.652 482.359V462.184L914.948 457.014L905.368 553.609L939.279 551.339ZM914.948 427.379C914.948 429.398 914.318 431.331 913.057 433.181C911.881 434.945 910.243 436.501 908.141 437.846C906.04 439.19 903.561 440.284 900.702 441.124C897.93 441.882 894.946 442.259 891.752 442.259C888.475 442.259 885.407 441.882 882.549 441.124C879.776 440.284 877.339 439.19 875.239 437.846C873.136 436.501 871.457 434.945 870.194 433.181C869.019 431.331 868.431 429.398 868.431 427.379C868.431 425.278 869.019 423.302 870.194 421.453C871.457 419.519 873.136 417.879 875.239 416.535C877.339 415.19 879.776 414.138 882.549 413.382C885.407 412.542 888.475 412.121 891.752 412.121C894.946 412.121 897.93 412.542 900.702 413.382C903.561 414.138 906.04 415.19 908.141 416.535C910.243 417.879 911.881 419.519 913.057 421.453C914.318 423.302 914.948 425.278 914.948 427.379ZM1109.85 470.254L1087.54 473.281C1087.54 480.679 1087.62 487.95 1087.79 495.097C1088.04 502.242 1088.25 509.347 1088.42 516.408C1088.67 523.469 1088.84 530.574 1088.92 537.719C1089.01 544.782 1088.92 551.969 1088.67 559.284C1088.25 570.044 1085.85 579.627 1081.48 588.035C1077.11 596.441 1071.23 603.504 1063.83 609.221C1056.44 615.021 1047.78 619.434 1037.86 622.461C1028.03 625.488 1017.4 627 1005.97 627C997.566 627 989.371 625.739 981.387 623.217C973.486 620.779 966.048 617.543 959.072 613.508L970.167 589.045C972.772 591.567 975.588 593.919 978.612 596.106C981.722 598.376 984.915 600.31 988.195 601.906C991.556 603.588 995.002 604.891 998.531 605.815C1002.06 606.824 1005.59 607.329 1009.12 607.329C1014.16 607.329 1018.62 606.531 1022.48 604.933C1026.43 603.42 1029.88 601.192 1032.82 598.249C1035.76 595.392 1038.24 591.944 1040.26 587.909C1042.36 583.957 1044.04 579.501 1045.3 574.541C1039.84 577.233 1034.08 579.334 1028.03 580.846C1021.98 582.361 1015.93 583.117 1009.88 583.117C999.792 583.117 990.842 581.393 983.024 577.947C975.209 574.499 968.569 569.835 963.108 563.949C957.728 557.981 953.609 551.087 950.753 543.268C947.978 535.365 946.592 527.043 946.592 518.3C946.592 507.874 948.19 498.543 951.383 490.304C954.66 482.066 959.368 475.089 965.501 469.372C971.721 463.656 979.284 459.282 988.195 456.258C997.187 453.147 1007.36 451.591 1018.7 451.591C1024.92 451.591 1030.93 452.726 1036.73 454.997C1042.53 457.265 1047.78 459.829 1052.49 462.688C1052.57 461.006 1052.61 459.452 1052.61 458.021C1052.7 456.509 1052.78 455.248 1052.87 454.238C1052.95 453.063 1052.99 452.012 1052.99 451.086L1109.85 453.736V470.254ZM1049.08 546.42C1049.34 541.965 1049.59 537.047 1049.84 531.668C1050.09 526.203 1050.34 520.654 1050.6 515.021C1050.85 509.305 1051.1 503.589 1051.35 497.87C1051.6 492.154 1051.82 486.733 1051.98 481.603C1047.19 478.493 1042.07 475.845 1036.6 473.66C1031.14 471.39 1025.93 470.254 1020.97 470.254C1017.11 470.254 1013.66 471.052 1010.63 472.651C1007.69 474.163 1005.09 476.224 1002.82 478.83C1000.55 481.436 998.615 484.42 997.019 487.782C995.421 491.061 994.119 494.466 993.111 497.998C992.102 501.444 991.346 504.892 990.841 508.337C990.421 511.701 990.211 514.726 990.211 517.418C990.211 520.275 990.421 523.469 990.841 527.001C991.262 530.449 991.935 533.978 992.858 537.594C993.867 541.125 995.17 544.571 996.766 547.935C998.363 551.213 1000.34 554.156 1002.69 556.762C1005.05 559.368 1007.78 561.468 1010.89 563.067C1014.08 564.663 1017.69 565.463 1021.73 565.463C1024.08 565.463 1026.43 565.084 1028.79 564.328C1031.23 563.488 1033.58 562.436 1035.85 561.175C1038.2 559.83 1040.43 558.274 1042.53 556.508C1044.71 554.745 1046.82 552.853 1048.83 550.834C1048.83 550.161 1048.83 549.447 1048.83 548.691C1048.83 547.935 1048.92 547.177 1049.08 546.42ZM1208.69 555.626L1206.42 582.865L1119.81 582.235V559.284L1145.9 558.274L1144.14 478.955L1117.29 479.712V456.76L1188.01 447.682L1186.25 471.769C1192.38 466.976 1198.43 463.277 1204.4 460.671C1210.45 457.98 1215.87 455.92 1220.66 454.492C1226.29 452.894 1231.67 451.844 1236.8 451.339C1245.12 451.339 1252.18 452.475 1257.98 454.743C1263.86 456.93 1268.61 460.083 1272.22 464.201C1275.92 468.237 1278.61 473.113 1280.29 478.83C1281.97 484.546 1282.81 490.893 1282.81 497.87C1282.81 500.813 1282.77 503.419 1282.69 505.69C1282.6 507.96 1282.44 510.187 1282.18 512.374C1282.02 514.475 1281.76 516.703 1281.43 519.056C1281.18 521.326 1280.84 524.058 1280.42 527.252C1280 530.449 1279.49 534.232 1278.91 538.603C1278.4 542.891 1277.81 548.061 1277.14 554.114L1303.99 552.6L1300.34 582.865L1232.89 580.216C1233.9 570.381 1234.78 561.931 1235.54 554.87C1236.3 547.807 1236.97 541.797 1237.56 536.837C1238.14 531.793 1238.61 527.589 1238.94 524.227C1239.28 520.78 1239.57 517.795 1239.82 515.273C1240.08 512.667 1240.24 510.313 1240.33 508.212C1240.41 506.111 1240.45 503.84 1240.45 501.402C1240.45 497.619 1240.16 494.087 1239.57 490.809C1238.98 487.447 1237.93 484.504 1236.42 481.982C1234.99 479.46 1233.06 477.485 1230.62 476.054C1228.27 474.542 1225.33 473.702 1221.8 473.532C1218.6 473.953 1215.07 474.963 1211.21 476.559C1207.85 477.988 1203.9 480.091 1199.36 482.864C1194.9 485.556 1189.99 489.423 1184.61 494.466L1180.32 557.013L1208.69 555.626ZM1460.44 536.837C1457.25 545.159 1452.79 552.39 1447.08 558.528C1441.45 564.579 1435.06 569.623 1427.92 573.659C1420.77 577.61 1413.21 580.553 1405.23 582.486C1397.24 584.42 1389.38 585.387 1381.65 585.387C1370.89 585.387 1361.31 583.705 1352.91 580.343C1344.5 576.979 1337.36 572.44 1331.47 566.724C1325.59 561.008 1320.97 554.324 1317.61 546.674C1314.33 538.938 1312.44 530.742 1311.94 522.083C1311.94 508.884 1314.12 497.619 1318.49 488.287C1322.95 478.872 1328.95 471.222 1336.52 465.336C1344.17 459.452 1353.08 455.164 1363.24 452.475C1373.41 449.699 1384.21 448.313 1395.64 448.313C1399.85 448.313 1404.17 448.606 1408.63 449.195C1413.17 449.783 1417.58 450.835 1421.87 452.347C1426.15 453.861 1430.23 455.962 1434.09 458.652C1438.04 461.26 1441.57 464.664 1444.68 468.868C1447.88 472.986 1450.57 477.946 1452.75 483.748C1454.94 489.548 1456.45 496.4 1457.29 504.303L1353.79 522.839C1354.46 528.641 1355.64 534.315 1357.32 539.864C1359.09 545.413 1361.44 550.329 1364.38 554.617C1367.32 558.821 1370.94 562.183 1375.22 564.707C1379.59 567.143 1384.76 568.278 1390.73 568.111C1397.2 567.355 1402.91 565.421 1407.87 562.311C1409.97 560.966 1411.99 559.326 1413.92 557.392C1415.86 555.375 1417.54 552.979 1418.97 550.203C1420.4 547.43 1421.45 544.194 1422.12 540.495C1422.79 536.795 1422.92 532.55 1422.5 527.757L1460.44 536.837ZM1412.66 496.232C1412.33 492.28 1411.61 488.834 1410.52 485.891C1409.43 482.948 1408.04 480.426 1406.36 478.325C1404.76 476.224 1402.96 474.5 1400.94 473.155C1399.01 471.725 1397.03 470.591 1395.01 469.749C1390.31 467.816 1385.01 466.934 1379.13 467.102C1373.58 467.774 1369.09 469.372 1365.64 471.894C1362.19 474.333 1359.5 477.401 1357.57 481.098C1355.72 484.714 1354.46 488.75 1353.79 493.205C1353.12 497.661 1352.78 502.2 1352.78 506.825L1412.66 496.232ZM1574.66 551.087V572.273L1477.59 584.629L1473.93 552.348L1506.21 552.095L1507.72 482.108L1468.51 479.207V457.77L1550.08 450.583L1545.92 478.704C1547.76 476.771 1550.2 474.542 1553.23 472.02C1556.25 469.414 1559.57 466.809 1563.19 464.201C1566.89 461.511 1570.79 458.822 1574.91 456.13C1579.11 453.44 1583.32 451.002 1587.52 448.817C1591.72 446.547 1595.84 444.613 1599.87 443.015C1603.99 441.335 1607.77 440.158 1611.22 439.486L1614.62 481.352C1602.52 481.352 1592.1 482.403 1583.36 484.504C1574.7 486.605 1567.47 488.918 1561.68 491.44C1554.95 494.383 1549.28 497.703 1544.65 501.402L1535.83 551.592L1574.66 551.087Z" fill="#F4F9E4"/>
<path d="M768.78 508C773.62 489.272 775.731 472.432 780.777 451.5" stroke="#8463FF" stroke-width="18"/>
<path d="M998.215 587.5C993.457 604.805 990.308 619.758 990.218 633" stroke="#8463FF" stroke-width="18"/>
<path d="M1177 238.5C1189 294.5 1180.74 331.795 1167 363.5" stroke="#8463FF" stroke-width="18"/>
<path d="M1395 483C1396 483 1401.38 456.875 1407 442" stroke="#8463FF" stroke-width="18"/>
</svg>
