<svg width="280" height="317" viewBox="0 0 280 317" fill="none" xmlns="http://www.w3.org/2000/svg">
<g clip-path="url(#clip0_108_53)">
<path fill-rule="evenodd" clip-rule="evenodd" d="M280 0L254.494 285.269L139.832 317L25.4804 285.321L0 0H280Z" fill="#E44D26"/>
<path fill-rule="evenodd" clip-rule="evenodd" d="M139.987 292.75L232.657 267.108L254.442 23.321H139.987V292.75Z" fill="#F16529"/>
<path fill-rule="evenodd" clip-rule="evenodd" d="M90.4216 93.3096H140.013V58.3281H52.0977L52.9246 67.7184L61.5301 164.15H139.961V129.142H93.626L90.4216 93.3096ZM98.3035 181.64H63.1323L68.0423 236.589L139.858 256.479L140.013 256.427V220.027L139.858 220.079L100.81 209.553L98.3035 181.64Z" fill="#EBEBEB"/>
<path fill-rule="evenodd" clip-rule="evenodd" d="M139.884 164.15H183.04L178.983 209.528L139.884 220.053V256.453L211.751 236.563L212.268 230.656L220.511 138.533L221.364 129.143H139.884V164.15ZM139.884 93.2323V93.3097H224.543L225.241 85.4415L226.843 67.6928L227.67 58.3025H139.884V93.2323Z" fill="white"/>
</g>
<defs>
<clipPath id="clip0_108_53">
<rect width="280" height="317" fill="white"/>
</clipPath>
</defs>
</svg>
