<svg width="325" height="317" viewBox="0 0 325 317" fill="none" xmlns="http://www.w3.org/2000/svg">
<g clip-path="url(#clip0_108_43)">
<path d="M267.447 0H57.5525C25.7672 0 0 25.7775 0 57.5757V259.424C0 291.222 25.7672 317 57.5525 317H267.447C299.233 317 325 291.222 325 259.424V57.5757C325 25.7775 299.233 0 267.447 0Z" fill="#330000"/>
<path d="M157.49 190.241H107.124L96.8806 222.083C96.7453 222.667 96.4085 223.184 95.9296 223.543C95.4506 223.902 94.8603 224.081 94.2625 224.047H68.7556C67.2983 224.047 66.79 223.246 67.2306 221.645L110.835 95.9913C111.259 94.6818 111.695 93.1985 112.144 91.5414C112.71 88.6297 113.002 85.6713 113.015 82.7051C112.989 82.5297 112.998 82.3508 113.041 82.1789C113.085 82.007 113.162 81.8454 113.268 81.7035C113.375 81.5616 113.508 81.4422 113.661 81.3523C113.814 81.2623 113.983 81.2036 114.158 81.1794C114.285 81.1602 114.413 81.1602 114.54 81.1794H149.203C150.22 81.1794 150.798 81.5418 150.951 82.2665L200.44 221.861C200.878 223.31 200.44 224.041 199.131 224.041H170.79C170.303 224.095 169.813 223.97 169.412 223.689C169.011 223.409 168.726 222.991 168.61 222.515L157.49 190.241ZM114.978 162.74H149.419C148.551 159.829 147.534 156.557 146.369 152.925C145.204 149.293 143.969 145.402 142.665 141.253L138.738 128.825C137.429 124.681 136.23 120.68 135.141 116.823C134.052 112.967 133.063 109.449 132.173 106.271H131.957C130.729 112.16 129.2 117.982 127.376 123.714C125.342 130.262 123.271 136.952 121.161 143.784C119.051 150.615 116.99 156.934 114.978 162.74Z" fill="#FF9A00"/>
<path d="M229.867 104.306C227.644 104.395 225.426 104.013 223.36 103.186C221.294 102.359 219.425 101.105 217.876 99.5067C216.332 97.8384 215.132 95.8808 214.347 93.7468C213.562 91.6127 213.206 89.3444 213.301 87.0723C213.226 84.8274 213.623 82.5916 214.469 80.5106C215.314 78.4296 216.587 76.5499 218.207 74.9939C219.81 73.454 221.703 72.2466 223.775 71.4415C225.847 70.6363 228.058 70.2492 230.28 70.3024C235.512 70.3024 239.617 71.8663 242.595 74.9939C245.616 78.273 247.216 82.6161 247.043 87.0723C247.135 89.3536 246.767 91.6301 245.962 93.7662C245.156 95.9024 243.929 97.8546 242.354 99.5067C240.715 101.123 238.76 102.384 236.611 103.21C234.462 104.036 232.167 104.409 229.867 104.306ZM214.826 221.861V117.605C214.826 116.296 215.404 115.641 216.567 115.641H243.377C244.533 115.641 245.118 116.277 245.118 117.605V221.861C245.118 223.31 244.54 224.041 243.377 224.041H216.79C215.481 224.047 214.826 223.316 214.826 221.861Z" fill="#FF9A00"/>
</g>
<defs>
<clipPath id="clip0_108_43">
<rect width="325" height="317" fill="white"/>
</clipPath>
</defs>
</svg>
