<svg width="317" height="317" viewBox="0 0 317 317" fill="none" xmlns="http://www.w3.org/2000/svg">
<g clip-path="url(#clip0_108_180)">
<path fill-rule="evenodd" clip-rule="evenodd" d="M0 0H317V317H0V0Z" fill="#F7DF1E"/>
<path fill-rule="evenodd" clip-rule="evenodd" d="M83.3516 264.915L107.601 250.236C112.271 258.543 116.527 265.56 126.743 265.56C136.52 265.56 142.712 261.742 142.712 246.831V145.524H172.508V247.243C172.508 278.097 154.424 292.131 128.033 292.131C104.196 292.131 90.3685 279.8 83.3516 264.915ZM188.683 261.716L212.933 247.682C219.33 258.104 227.611 265.766 242.29 265.766C254.621 265.766 262.515 259.6 262.515 251.087C262.515 240.871 254.441 237.26 240.82 231.301L233.364 228.102C211.875 218.944 197.609 207.464 197.609 183.214C197.609 160.873 214.635 143.847 241.232 143.847C260.168 143.847 273.789 150.451 283.566 167.684L260.374 182.569C255.266 173.411 249.746 169.799 241.232 169.799C232.513 169.799 226.966 175.32 226.966 182.569C226.966 191.495 232.487 195.132 245.257 200.653L252.712 203.852C278.045 214.713 292.286 225.78 292.286 250.674C292.286 277.478 271.209 292.157 242.909 292.157C215.28 292.157 197.402 278.949 188.683 261.716Z" fill="black"/>
</g>
<defs>
<clipPath id="clip0_108_180">
<rect width="317" height="317" fill="white"/>
</clipPath>
</defs>
</svg>
