<svg width="325" height="317" viewBox="0 0 325 317" fill="none" xmlns="http://www.w3.org/2000/svg">
<g clip-path="url(#clip0_108_38)">
<path d="M267.451 0H57.5494C25.7658 0 0 25.7757 0 57.5717V259.428C0 291.224 25.7658 317 57.5494 317H267.451C299.234 317 325 291.224 325 259.428V57.5717C325 25.7757 299.234 0 267.451 0Z" fill="#001E36"/>
<path d="M73.1846 222.301V82.9269C73.1846 81.9168 73.6164 81.4022 74.4928 81.4022C76.8108 81.4022 78.9382 81.4022 82.1136 81.2942C85.2889 81.1862 88.7627 81.148 92.4714 81.0782L104.246 80.8558C108.386 80.7838 112.491 80.7478 116.559 80.7478C127.605 80.7478 136.92 82.1285 144.502 84.89C151.319 87.2016 157.536 91.0015 162.703 96.0143C167.085 100.362 170.469 105.61 172.623 111.395C174.66 117.029 175.69 122.977 175.665 128.968C175.665 140.607 172.976 150.204 167.599 157.76C162.185 165.348 154.576 171.095 145.798 174.227C136.64 177.645 126.46 178.801 115.27 178.801C112.095 178.801 109.821 178.77 108.513 178.693C107.205 178.617 105.243 178.585 102.626 178.585V222.098C102.659 222.323 102.647 222.554 102.591 222.775C102.535 222.996 102.435 223.204 102.298 223.386C102.161 223.569 101.99 223.722 101.793 223.838C101.596 223.954 101.379 224.03 101.153 224.061C100.991 224.086 100.826 224.086 100.664 224.061H74.7087C73.6672 224.042 73.1846 223.464 73.1846 222.301ZM102.626 107.577V153.033C104.514 153.181 106.259 153.253 107.859 153.249H115.054C120.349 153.231 125.608 152.391 130.645 150.759C134.963 149.481 138.823 146.989 141.765 143.58C144.597 140.238 146.014 135.579 146.014 129.603C146.124 125.383 145.022 121.221 142.838 117.608C140.55 114.114 137.242 111.41 133.363 109.864C128.307 107.9 122.908 106.973 117.487 107.139C113.994 107.139 110.905 107.175 108.221 107.247C105.537 107.319 103.682 107.429 102.658 107.577H102.626Z" fill="#31A8FF"/>
<path d="M259.963 144.768C255.866 142.66 251.501 141.119 246.988 140.187C242.018 139.045 236.936 138.459 231.836 138.44C229.078 138.366 226.324 138.698 223.663 139.425C221.966 139.801 220.459 140.767 219.408 142.15C218.697 143.257 218.32 144.545 218.322 145.861C218.36 147.136 218.82 148.363 219.63 149.348C220.903 150.839 222.459 152.062 224.209 152.944C227.315 154.613 230.517 156.098 233.798 157.391C241.116 159.843 248.108 163.176 254.622 167.315C259.055 170.119 262.725 173.978 265.304 178.547C267.477 182.881 268.566 187.677 268.479 192.524C268.608 198.917 266.782 205.196 263.246 210.522C259.458 215.925 254.199 220.126 248.093 222.625C241.463 225.539 233.28 226.996 223.542 226.996C217.359 227.053 211.187 226.468 205.125 225.249C200.348 224.372 195.697 222.906 191.281 220.884C190.803 220.639 190.405 220.262 190.134 219.799C189.863 219.335 189.73 218.804 189.75 218.267V194.716C189.723 194.485 189.759 194.251 189.855 194.039C189.952 193.827 190.104 193.646 190.296 193.515C190.483 193.408 190.699 193.361 190.913 193.381C191.128 193.4 191.332 193.485 191.497 193.623C196.717 196.702 202.387 198.947 208.3 200.275C213.509 201.583 218.852 202.278 224.221 202.346C229.302 202.346 233.045 201.692 235.449 200.383C236.532 199.887 237.447 199.088 238.085 198.082C238.723 197.076 239.056 195.907 239.044 194.716C239.044 192.823 237.954 191.004 235.773 189.259C233.593 187.514 229.156 185.417 222.462 182.969C215.617 180.586 209.126 177.284 203.169 173.153C198.908 170.193 195.398 166.277 192.919 161.718C190.77 157.421 189.682 152.672 189.744 147.868C189.725 142.081 191.312 136.402 194.329 131.465C197.756 126.039 202.679 121.721 208.504 119.032C214.897 115.834 222.89 114.235 232.484 114.235C238.103 114.188 243.718 114.587 249.275 115.429C253.297 115.947 257.229 117.016 260.96 118.606C261.256 118.691 261.528 118.844 261.755 119.052C261.982 119.26 262.158 119.519 262.268 119.807C262.416 120.338 262.488 120.888 262.484 121.439V143.472C262.502 143.726 262.452 143.981 262.341 144.211C262.229 144.441 262.06 144.637 261.849 144.781C261.555 144.925 261.232 144.998 260.904 144.996C260.577 144.994 260.255 144.916 259.963 144.768Z" fill="#31A8FF"/>
</g>
<defs>
<clipPath id="clip0_108_38">
<rect width="325" height="317" fill="white"/>
</clipPath>
</defs>
</svg>
