<svg width="28" height="30" viewBox="0 0 28 30" fill="none" xmlns="http://www.w3.org/2000/svg">
<path d="M17.0001 27.4102L19.5 27L21.9833 27" stroke="#8463FF" stroke-width="2.2"/>
<path d="M7.54163 15.8566C7.64655 15.975 7.76096 16.1038 7.94633 16.2913C8.01706 16.3647 8.08322 16.438 8.14686 16.5086C8.15602 16.5187 8.16513 16.5288 8.1742 16.5389L8.17927 16.5445C8.23939 16.611 8.32062 16.701 8.39053 16.7599C8.41098 16.7771 8.44386 16.8033 8.48545 16.8278C8.51438 16.8448 8.61176 16.9009 8.74769 16.9038C8.8264 16.9054 8.92531 16.8891 9.02215 16.8309C9.11911 16.7727 9.1803 16.6927 9.21605 16.6216C9.27777 16.4988 9.27328 16.3849 9.27149 16.3497C9.26704 16.2624 9.24295 16.1799 9.2281 16.1321C9.21212 16.0805 9.19133 16.022 9.16684 15.9576C8.95514 15.107 8.58507 13.6835 8.1375 12.4166C7.84823 11.5702 7.75574 11.3415 7.54306 10.8154C7.51235 10.7395 7.47914 10.6573 7.44247 10.5662C7.30092 10.2146 7.18262 9.8902 7.05757 9.54652L7.05038 9.52675C6.92836 9.19138 6.7998 8.83804 6.64021 8.4347C6.34891 7.65243 6.1046 6.84196 5.90002 6.02404L5.89606 6.00824L5.89109 5.99273C5.59608 5.07251 5.61331 4.08147 5.93862 3.17327C6.33617 2.74856 6.94147 2.57843 7.49977 2.7388C8.21122 3.16233 8.77725 3.79276 9.12187 4.54657L9.12864 4.56136L9.13635 4.57569C9.68458 5.59401 10.0986 6.67733 10.3654 7.79672L10.3676 7.80598L10.3701 7.81516C10.5717 8.53764 10.8354 9.39566 11.0759 10.1779C11.1201 10.3217 11.1635 10.463 11.2056 10.6004C11.3419 11.0451 11.4642 11.4486 11.5565 11.7722C11.6528 12.11 11.7052 12.3227 11.7165 12.4083L12.7091 12.2868C12.687 12.0897 12.6452 11.8171 12.6011 11.5291C12.5732 11.3463 12.5442 11.1573 12.5188 10.9775C12.4484 10.481 12.4032 10.0475 12.4207 9.79807C12.4608 9.34396 12.7277 8.93357 13.1424 8.70517C13.5688 8.52664 14.0154 8.44454 14.46 8.47192C14.857 8.50396 15.2309 8.68306 15.5129 8.9729C15.9781 9.87754 16.2938 10.8318 16.4349 11.8307L17.4288 11.7269C17.3695 10.8536 17.4211 9.96626 17.5783 9.09307C17.7631 8.79589 18.0333 8.56521 18.3645 8.42756C18.8457 8.28591 19.3446 8.22925 19.8452 8.25936C20.1978 8.33862 20.5172 8.51872 20.7799 8.77673C21.1986 9.57692 21.4961 10.4478 21.6657 11.3447C21.6686 11.3663 21.6738 11.399 21.6833 11.4329L21.6835 11.4337C21.686 11.4438 21.7111 11.5423 21.7902 11.6334C21.8388 11.6893 21.9595 11.8003 22.1543 11.8061C22.348 11.8118 22.4743 11.7092 22.5252 11.6579C22.609 11.5736 22.6406 11.4787 22.644 11.4688L22.6442 11.4681C22.6541 11.4405 22.66 11.4167 22.663 11.4043C22.6692 11.3779 22.6738 11.3515 22.6769 11.3332C22.6821 11.3019 22.6881 11.2611 22.6941 11.2199C22.6954 11.2112 22.6966 11.2025 22.6979 11.1939C22.7057 11.1409 22.7147 11.0807 22.7256 11.0146C22.771 10.7405 22.8439 10.4029 22.9656 10.1419L22.9892 10.0914L23.001 10.0368C23.0355 9.87769 23.1011 9.72694 23.1939 9.59314C23.2867 9.45936 23.405 9.34516 23.5419 9.25707C23.6788 9.16897 23.8318 9.10872 23.992 9.07974C24.1523 9.05076 24.3166 9.05363 24.4757 9.08817C24.6349 9.12272 24.7856 9.18827 24.9194 9.28108C25.0532 9.37388 25.1674 9.49214 25.2555 9.62908C25.3436 9.76602 25.4038 9.91897 25.4328 10.0792C25.4618 10.2394 25.4589 10.4038 25.4244 10.5629L25.407 10.6432L25.4161 10.7248L25.8517 14.606C25.8992 15.5732 25.869 16.5522 25.7783 17.5317C25.5892 18.3762 25.2823 19.1884 24.882 19.9466C24.1413 21.0005 23.5398 22.1691 23.1373 23.405L23.1223 23.4512L23.1164 23.4994C22.9945 24.5007 23.0778 25.5142 23.3589 26.4787C22.8794 26.555 22.3936 26.5962 21.909 26.6015C21.8681 26.5971 21.7731 26.5686 21.6201 26.4672C21.4664 26.3653 21.298 26.2195 21.1288 26.05C20.7956 25.7162 20.5043 25.3364 20.375 25.1541C20.2591 24.9777 20.097 24.8363 19.9063 24.7455C19.7116 24.6528 19.4949 24.6164 19.2806 24.6404C19.0664 24.6645 18.8631 24.748 18.6939 24.8815C18.5296 25.0111 18.4037 25.1828 18.3295 25.3782C18.1836 25.7097 17.9472 26.1712 17.6846 26.5595C17.5514 26.7565 17.4205 26.921 17.3008 27.0381C17.2415 27.0961 17.1912 27.1362 17.1511 27.162C17.1102 27.1884 17.0907 27.1929 17.0915 27.1928L17.0915 27.1927L17.082 27.1949C16.5521 27.3224 15.7048 27.4191 14.7231 27.5108C14.4123 27.5399 14.0891 27.5683 13.7623 27.5971C13.2704 27.6404 12.7702 27.6845 12.2914 27.7323C12.2843 27.5942 12.2715 27.439 12.2495 27.2765C12.2118 26.9988 12.1452 26.683 12.0242 26.3884C11.9042 26.0965 11.7161 25.7895 11.4141 25.5775L11.4137 25.5772C11.0356 25.3122 10.6477 25.0212 10.2757 24.7407C10.247 24.7191 10.2184 24.6975 10.1898 24.676C9.86257 24.4292 9.54692 24.1911 9.27267 23.9974L7.67388 22.537C7.43092 22.2871 7.13741 21.8914 6.73039 21.3427L6.7175 21.3253C6.30854 20.7739 5.80736 20.101 5.18075 19.3613L5.18082 19.3612L5.17458 19.3541C4.88827 19.0288 4.44759 18.5958 4.00051 18.1565C3.88078 18.0388 3.76058 17.9207 3.64277 17.8041C3.06182 17.2291 2.54666 16.6979 2.30372 16.346L2.29379 16.3316L2.28289 16.318C2.13738 16.1359 2.03126 15.9255 1.97126 15.7003C1.91125 15.475 1.89866 15.2397 1.93428 15.0094L1.93537 15.0023L1.93626 14.9952C1.9906 14.5621 2.20151 14.1638 2.52924 13.8754C2.85125 13.592 3.26419 13.434 3.69261 13.4297C4.48816 13.5117 5.24529 13.818 5.87607 14.3048L5.87901 14.3071C6.34879 14.6641 6.78368 15.0561 7.19374 15.4829L7.19369 15.4829L7.19986 15.4891C7.34658 15.6366 7.43711 15.7387 7.53796 15.8525L7.54163 15.8566ZM8.27842 16.4471C8.27885 16.4488 8.27902 16.4496 8.279 16.4495L8.27842 16.4471ZM22.657 11.2123L22.6569 11.2121C22.6573 11.2147 22.6575 11.2162 22.6575 11.2164C22.6575 11.2167 22.6573 11.2154 22.657 11.2123Z" fill="white" stroke="#8463FF"/>
<path d="M7.32577 22.8965C6.77039 22.3309 6.02939 21.1372 4.79881 19.6844C4.10304 18.8938 2.44173 17.4266 1.89183 16.6301C1.70312 16.3939 1.56551 16.1211 1.48768 15.8289C1.40986 15.5368 1.39353 15.2317 1.43972 14.9329C1.50926 14.3787 1.77915 13.869 2.19851 13.5C2.61786 13.131 3.15772 12.9281 3.71632 12.9296C4.61576 13.0171 5.47069 13.3607 6.18112 13.909C6.67312 14.2829 7.12726 14.6924 7.55387 15.1364C7.87238 15.4565 7.94948 15.5839 8.30364 15.9419C8.65895 16.3102 8.90975 16.6798 8.68859 16.108C8.47862 15.2629 8.10952 13.8391 7.66478 12.5807C7.33753 11.6231 7.26845 11.4739 6.97822 10.7529C6.68799 10.0319 6.49436 9.42567 6.17301 8.61398C5.8735 7.81029 5.62335 6.98014 5.41454 6.14535C5.07586 5.08889 4.68026 3.87155 5.50173 2.91198C6.16418 2.13816 6.98384 1.8079 7.9692 2.06617C8.91361 2.31371 9.68289 3.88643 9.68289 3.88643C9.68289 3.88643 10.79 6.09101 11.067 7.25307C11.5398 8.94787 12.1434 11.8269 12.2118 12.3426C12.141 11.7121 11.8765 10.3811 11.9218 9.75856C11.9762 9.12448 12.3523 8.55896 12.9252 8.25396C13.4246 8.04092 13.9574 7.93926 14.495 7.97313C15.044 8.01617 15.5543 8.2729 15.9246 8.68139C16.431 9.65024 16.7767 10.679 16.9295 11.7608C16.8653 10.8156 16.9251 9.85644 17.1021 8.91556C17.3463 8.47998 17.7273 8.14417 18.198 7.95529C18.7549 7.78813 19.3337 7.72318 19.9138 7.76274C20.4066 7.86442 20.8434 8.11893 21.1872 8.47806C21.651 9.34703 21.9771 10.2943 22.1597 11.2681C22.1863 11.5058 22.2083 10.5823 22.512 9.93072C22.5604 9.70743 22.6524 9.49588 22.7826 9.30814C22.9129 9.1204 23.0788 8.96014 23.271 8.83653C23.4631 8.71292 23.6778 8.62837 23.9026 8.5877C24.1275 8.54704 24.3581 8.55106 24.5814 8.59954C24.8047 8.64801 25.0162 8.73999 25.204 8.87022C25.3917 9.00046 25.552 9.16639 25.6756 9.35856C25.7992 9.55072 25.8837 9.76536 25.9244 9.9902C25.9651 10.215 26.0958 10.8073 26.0473 11.0306L26.3499 14.5657C26.4004 15.5752 26.3682 16.594 26.2728 17.6095C26.0717 18.5217 25.7407 19.3961 25.3085 20.2087C24.5861 21.2317 24.0015 22.3648 23.6123 23.5598C23.4763 24.6775 23.6143 25.8114 24.0145 26.8638C23.3198 27.0151 22.6066 27.0951 21.8956 27.1016C21.2122 27.0736 20.2345 25.8228 19.9607 25.4348C19.8947 25.3319 19.8012 25.2494 19.6908 25.1969C19.5804 25.1443 19.4575 25.1236 19.336 25.1373C19.2145 25.1509 19.0992 25.1983 19.0032 25.274C18.9072 25.3498 18.8343 25.4509 18.7927 25.5659C18.4845 26.2703 17.7807 27.5529 17.1985 27.6811C16.0571 27.9557 13.6636 28.0777 11.7928 28.2877C11.7928 28.2877 11.9103 26.5371 11.1264 25.9867C10.3539 25.4454 9.54923 24.803 8.9584 24.3879L7.32577 22.8965Z" stroke="#8463FF" stroke-width="2" stroke-linecap="round" stroke-linejoin="round"/>
<path d="M17.3381 15.7426C17.1734 18.3831 17.0018 19.7098 16.6262 21.9424M21.014 15.6412C20.7735 18.5757 20.5947 20.1824 20.1834 22.8743" stroke="#8463FF" stroke-linecap="round"/>
<path d="M13.7217 15.3273C13.5821 18.0536 13.3845 19.5057 12.9504 22.0437" stroke="#8463FF" stroke-linecap="round"/>
<path d="M16 18.0974C18.3474 19.491 19.5402 20.3424 21.5838 21.9088" stroke="#8463FF" stroke-linecap="round"/>
<rect x="15.9785" y="24.2764" width="6" height="2.24469" transform="rotate(-4.97373 15.9785 24.2764)" fill="white"/>
<path d="M16.5 27.5C18.5591 25.1329 23 26 23 26" stroke="#8463FF"/>
</svg>
