<svg width="356" height="317" viewBox="0 0 356 317" fill="none" xmlns="http://www.w3.org/2000/svg">
<g clip-path="url(#clip0_108_176)">
<path fill-rule="evenodd" clip-rule="evenodd" d="M356 158.543C356 134.963 326.478 112.629 281.196 98.7529C291.655 52.6064 286.99 15.9036 266.536 4.14247C261.814 1.39048 256.31 0.0869049 250.284 0.0869049V16.2802C253.615 16.2802 256.31 16.9465 258.569 18.1631C268.449 23.8119 272.707 45.3643 269.376 73.087C268.564 79.8945 267.261 87.0787 265.667 94.4077C251.442 90.9315 235.914 88.2374 219.603 86.4993C209.811 73.087 199.642 60.8913 189.415 50.231C213.055 28.2151 235.247 16.1933 250.341 16.1933V0C230.38 0 204.277 14.2234 177.855 38.9044C151.433 14.3683 125.33 0.289683 105.369 0.289683V16.483C120.376 16.483 142.655 28.4469 166.325 50.289C156.156 60.9493 146.016 73.058 136.368 86.4993C119.97 88.2374 104.442 90.9315 90.2168 94.4656C88.5365 87.2235 87.3197 80.1842 86.4505 73.4346C83.0319 45.712 87.2617 24.1596 97.054 18.4238C99.2269 17.1203 102.066 16.5409 105.398 16.5409V0.376588C99.3138 0.376588 93.7803 1.68016 89 4.43215C68.6042 16.1933 64.0267 52.8382 74.5723 98.8398C29.377 112.745 0 135.021 0 158.543C0 182.124 29.5218 204.458 74.804 218.334C64.3454 264.481 69.0098 301.183 89.4635 312.944C94.1859 315.696 99.6904 317 105.803 317C125.765 317 151.868 302.777 178.29 278.096C204.712 302.632 230.815 316.71 250.776 316.71C256.86 316.71 262.394 315.407 267.174 312.655C287.57 300.894 292.147 264.249 281.602 218.247C326.623 204.4 356 182.037 356 158.543ZM211.085 158.543C211.085 140.235 196.252 125.375 177.913 125.375C159.603 125.375 144.741 140.207 144.741 158.543C144.741 176.88 159.574 191.712 177.913 191.712C196.252 191.683 211.085 176.851 211.085 158.543ZM261.524 110.137C258.83 119.494 255.498 129.141 251.732 138.787C248.748 132.993 245.648 127.171 242.23 121.377C238.898 115.583 235.334 109.906 231.771 104.402C242.085 105.937 252.022 107.82 261.524 110.137ZM228.294 187.425C222.645 197.216 216.822 206.515 210.796 215.147C199.989 216.103 189.038 216.596 178 216.596C167.049 216.596 156.098 216.074 145.349 215.205C139.323 206.573 133.442 197.361 127.793 187.628C122.288 178.126 117.276 168.48 112.699 158.746C117.189 149.013 122.288 139.309 127.706 129.807C133.355 120.016 139.178 110.717 145.204 102.084C156.011 101.128 166.962 100.636 178 100.636C188.951 100.636 199.902 101.157 210.651 102.026C216.677 110.659 222.558 119.871 228.207 129.604C233.712 139.106 238.724 148.752 243.301 158.486C238.724 168.19 233.741 177.894 228.294 187.425ZM251.732 177.981C255.643 187.715 258.975 197.419 261.756 206.863C252.254 209.18 242.229 211.15 231.858 212.656C235.421 207.065 238.956 201.33 242.316 195.449C245.619 189.655 248.748 183.775 251.732 177.981ZM178.145 255.384C171.395 248.432 164.644 240.669 157.981 232.181C164.499 232.471 171.192 232.702 177.942 232.702C184.75 232.702 191.501 232.557 198.106 232.181C191.559 240.669 184.808 248.432 178.145 255.384ZM124.171 212.656C113.857 211.121 103.92 209.238 94.4176 206.921C97.112 197.564 100.444 187.917 104.21 178.271C107.194 184.065 110.294 189.887 113.713 195.681C117.131 201.503 120.608 207.152 124.171 212.656ZM177.768 61.6735C184.519 68.6259 191.269 76.3894 197.932 84.8771C191.414 84.5874 184.721 84.3557 177.971 84.3557C171.163 84.3557 164.412 84.5005 157.807 84.8771C164.355 76.3894 171.105 68.6259 177.768 61.6735ZM124.084 104.402C120.521 109.993 116.986 115.728 113.626 121.609C110.294 127.403 107.165 133.225 104.181 139.019C100.27 129.285 96.9382 119.581 94.1569 110.137C103.688 107.878 113.713 105.937 124.084 104.402ZM58.4063 195.246C32.7087 184.296 16.1081 169.928 16.1081 158.543C16.1081 147.159 32.7376 132.704 58.4063 121.841C64.6351 119.147 71.4723 116.771 78.5124 114.512C82.6553 128.735 88.1019 143.538 94.8522 158.688C88.1888 173.781 82.8001 188.497 78.7441 202.662C71.5592 200.403 64.722 197.94 58.4063 195.246ZM97.4596 298.924C87.5804 293.275 83.3216 271.723 86.6533 244C87.4645 237.192 88.7682 230.008 90.3617 222.679C104.587 226.155 120.115 228.849 136.426 230.588C146.218 244 156.387 256.196 166.614 266.856C142.945 288.843 120.753 300.894 105.659 300.894C102.385 300.807 99.6325 300.169 97.4596 298.924ZM269.578 243.652C272.997 271.375 268.767 292.927 258.975 298.663C256.802 299.967 253.963 300.546 250.631 300.546C235.624 300.546 213.345 288.582 189.675 266.74C199.844 256.08 209.984 243.971 219.632 230.53C236.03 228.792 251.558 226.098 265.783 222.534C267.464 229.863 268.767 236.903 269.578 243.652ZM297.507 195.246C291.278 197.94 284.441 200.316 277.401 202.575C273.258 188.352 267.811 173.549 261.061 158.399C267.724 143.306 273.113 128.59 277.169 114.425C284.354 116.684 291.162 119.147 297.565 121.812C323.262 132.762 339.863 147.13 339.863 158.514C339.805 169.928 323.204 184.354 297.507 195.246Z" fill="#00D8FF"/>
</g>
<defs>
<clipPath id="clip0_108_176">
<rect width="356" height="317" fill="white"/>
</clipPath>
</defs>
</svg>
