<svg width="280" height="317" viewBox="0 0 280 317" fill="none" xmlns="http://www.w3.org/2000/svg">
<g clip-path="url(#clip0_183_10)">
<path fill-rule="evenodd" clip-rule="evenodd" d="M245.245 61.037C245.013 59.4375 243.619 58.5604 242.457 58.4572C241.295 58.354 218.727 58.0187 218.727 58.0187C218.727 58.0187 199.827 39.7024 197.968 37.8192C196.108 35.9618 192.468 36.5293 191.048 36.9421C191.022 36.9421 187.51 38.0514 181.546 39.883C180.564 36.6583 179.093 32.7113 177.001 28.7385C170.288 15.9171 160.424 9.13236 148.521 9.10656C148.495 9.10656 148.495 9.10656 148.469 9.10656C147.643 9.10656 146.817 9.18396 145.99 9.26135C145.629 8.84859 145.293 8.43583 144.906 8.02307C139.716 2.4766 133.08 -0.206343 125.101 0.0258352C109.738 0.464393 94.4264 11.5573 82.0066 31.2666C73.2792 45.1199 66.6175 62.5332 64.7326 76.0253C47.097 81.4944 34.7547 85.3125 34.4707 85.3898C25.5625 88.176 25.2785 88.4598 24.1166 96.844C23.3161 103.164 0 283.257 0 283.257L195.334 317L280 295.975C280 295.975 245.452 62.6364 245.245 61.037ZM171.759 42.9013C167.267 44.2944 162.154 45.868 156.603 47.5965C156.499 39.8314 155.57 28.9965 151.929 19.6578C163.6 21.8505 169.332 35.0331 171.759 42.9013ZM146.378 50.7696C136.153 53.9427 124.972 57.3995 113.766 60.8564C116.916 48.809 122.907 36.7873 130.24 28.9191C132.977 25.9781 136.798 22.7277 141.317 20.8702C145.577 29.7188 146.481 42.2822 146.378 50.7696ZM125.437 10.2417C129.052 10.1643 132.073 10.964 134.681 12.6666C130.524 14.8078 126.522 17.9035 122.752 21.9279C112.992 32.4017 105.504 48.6284 102.534 64.3133C93.2387 67.1768 84.1239 70.0145 75.758 72.5943C81.0255 47.9318 101.734 10.9124 125.437 10.2417Z" fill="#95BF47"/>
<path fill-rule="evenodd" clip-rule="evenodd" d="M242.457 58.4572C241.295 58.354 218.728 58.0186 218.728 58.0186C218.728 58.0186 199.827 39.7024 197.968 37.8192C197.271 37.1226 196.341 36.7615 195.334 36.6067V316.974L279.974 295.949C279.974 295.949 245.426 62.6364 245.22 61.0369C245.039 59.4375 243.619 58.5604 242.457 58.4572Z" fill="#5E8E3E"/>
<path fill-rule="evenodd" clip-rule="evenodd" d="M148.417 101.952L138.579 138.713C138.579 138.713 127.606 133.734 114.618 134.534C95.5621 135.746 95.3555 147.742 95.5363 150.761C96.5691 167.194 139.845 170.78 142.298 209.295C144.208 239.582 126.211 260.297 100.287 261.948C69.1733 263.909 52.0283 245.567 52.0283 245.567L58.6126 217.55C58.6126 217.55 75.8609 230.552 89.6491 229.675C98.6606 229.108 101.888 221.781 101.552 216.596C100.21 195.158 64.9387 196.422 62.7181 161.183C60.8332 131.541 80.3278 101.487 123.345 98.7786C139.948 97.7209 148.417 101.952 148.417 101.952Z" fill="white"/>
</g>
<defs>
<clipPath id="clip0_183_10">
<rect width="280" height="317" fill="white"/>
</clipPath>
</defs>
</svg>
