<svg width="503" height="300" viewBox="0 0 503 300" fill="none" xmlns="http://www.w3.org/2000/svg">
<g clip-path="url(#clip0_108_60)">
<path fill-rule="evenodd" clip-rule="evenodd" d="M251.5 0C184.45 0 142.533 33.3333 125.75 100C150.911 66.6803 180.247 54.182 213.759 62.5051C232.916 67.2534 246.506 81.0479 261.734 96.316C286.294 121.203 314.948 149.98 377.25 149.98C444.3 149.98 486.217 116.646 503 49.9795C477.866 83.3265 448.53 95.8248 414.991 87.4744C395.834 82.7262 382.244 68.9316 367.016 53.6635C342.374 28.6533 313.843 0 251.5 0ZM125.75 149.98C58.6997 149.98 16.783 183.313 0 249.98C25.1882 216.66 54.5244 204.162 88.0086 212.485C107.166 217.233 120.756 231.027 135.984 246.336C160.544 271.183 189.198 300 251.5 300C318.55 300 360.467 266.667 377.25 200C352.116 233.32 322.78 245.791 289.241 237.413C270.084 232.665 256.494 218.87 241.266 203.602C216.706 178.715 188.052 149.898 125.75 149.898V149.98Z" fill="#06B6D4"/>
</g>
<defs>
<clipPath id="clip0_108_60">
<rect width="503" height="300" fill="white"/>
</clipPath>
</defs>
</svg>
