<svg width="13" height="25" viewBox="0 0 13 25" fill="none" xmlns="http://www.w3.org/2000/svg">
<path d="M7.93 18.3561V14.1261H9.2V11.1261H7.93V5.67609C8.13 5.23609 8.43 4.85609 8.8 4.53609C9.03 4.37609 9.32 4.21609 9.63 4.09609C10.017 4.03706 10.4093 4.02029 10.8 4.04609L11.67 4.09609L11.72 3.22609L11.8 1.95609L11.86 1.08609L10.98 1.02609C10.28 0.986087 9.58 1.02609 8.88 1.16609L8.83 1.17609L8.77 1.19609C8.07 1.44609 7.48 1.75609 6.95 2.14609L6.93 2.15609L6.9 2.17609C6.74 2.30609 6.59 2.45609 6.44 2.59609C6.31503 2.46436 6.18493 2.3376 6.05 2.21609L6.02 2.18609L5.99 2.16609C5.4364 1.73457 4.80978 1.40601 4.14 1.19609L4.1 1.18609L4.06 1.17609C3.34065 1.02359 2.60388 0.969766 1.87 1.01609L1 1.07609L1.06 1.94609L1.14 3.21609L1.2 4.09609L2.07 4.03609C2.5 4.00609 2.92 4.03609 3.34 4.11609C3.57 4.19609 3.84 4.32609 4.08 4.51609C4.41 4.81609 4.71 5.23609 4.92 5.70609V11.1261H3.65V14.1261H4.92V18.3261C4.71 18.7961 4.41 19.2161 4.04 19.5661C3.84 19.7061 3.58 19.8461 3.29 19.9361C2.93 20.0061 2.49 20.0361 2.07 19.9961L1.2 19.9461L1.14 20.8161L1.06 22.0861L1 22.9661L1.87 23.0161C2.58 23.0661 3.29 23.0161 3.99 22.8761H4.03L4.07 22.8561C4.74915 22.6562 5.38621 22.3343 5.95 21.9061L5.98 21.8861L6.01 21.8561L6.45 21.4261C6.59 21.5661 6.73 21.6961 6.89 21.8261L6.91 21.8461L6.93 21.8561C7.48 22.2761 8.07 22.5861 8.69 22.8061L8.74 22.8261L8.8 22.8361C9.57 23.0061 10.27 23.0561 10.97 23.0161L11.85 22.9661L11.8 22.0961L11.73 20.8261L11.68 19.9561L10.81 19.9961C10.39 20.0261 9.98 19.9961 9.57 19.9161C9.33 19.8161 9.05 19.6661 8.77 19.4661C8.41644 19.158 8.13045 18.7801 7.93 18.3561Z" fill="white" stroke="#8463FF" stroke-width="1.75"/>
</svg>
