<svg width="25" height="22" viewBox="0 0 25 22" fill="none" xmlns="http://www.w3.org/2000/svg">
<path d="M4.80961 1.45996C5.70961 1.11996 7.48961 1.32996 7.94961 2.33996C8.41961 3.34996 8.69961 4.65996 8.71961 4.33996C8.68961 3.36996 8.76961 2.40996 8.96961 1.45996C9.16961 0.859957 9.64961 0.379957 10.2596 0.159957C10.8165 -0.0117075 11.4066 -0.0460181 11.9796 0.0599565C12.5596 0.179956 13.0796 0.509957 13.4196 0.989957C13.8596 2.08996 14.0996 3.23996 14.1496 4.41996C14.1996 3.41996 14.3696 2.41996 14.6496 1.45996C14.9696 1.01996 15.4196 0.699956 15.9496 0.559956C16.5678 0.446956 17.2014 0.446956 17.8196 0.559956C18.3196 0.729956 18.7696 1.04996 19.0896 1.47996C19.4896 2.47996 19.7296 3.51996 19.7996 4.57996C19.7996 4.84996 19.9296 3.85996 20.3496 3.19996C20.4124 2.94777 20.5267 2.71132 20.6854 2.50556C20.8442 2.29979 21.0439 2.12917 21.2719 2.00446C21.4999 1.87976 21.7513 1.80368 22.0102 1.78104C22.269 1.75839 22.5298 1.78966 22.776 1.87288C23.0222 1.95611 23.2485 2.08947 23.4405 2.26455C23.6326 2.43963 23.7863 2.65262 23.8918 2.89009C23.9974 3.12755 24.0526 3.38433 24.054 3.64421C24.0553 3.90408 24.0027 4.16142 23.8996 4.39996V8.62996C23.8296 9.72996 23.6796 10.81 23.4496 11.88C23.1296 12.83 22.6696 13.73 22.0996 14.56C21.1934 15.5719 20.445 16.7148 19.8796 17.95C19.6054 19.1355 19.6157 20.3691 19.9096 21.55C19.1496 21.62 18.3796 21.62 17.6096 21.55C16.8796 21.43 15.9796 19.97 15.7396 19.52C15.6806 19.402 15.59 19.3029 15.4778 19.2336C15.3657 19.1643 15.2364 19.1276 15.1046 19.1276C14.9728 19.1276 14.8435 19.1643 14.7314 19.2336C14.6192 19.3029 14.5286 19.402 14.4696 19.52C14.0596 20.23 13.1396 21.52 12.5996 21.6C11.3396 21.75 8.73961 21.6 6.71961 21.6C6.71961 21.6 7.07961 19.73 6.28961 19.05C5.49961 18.38 4.73961 17.59 4.15961 17.07L2.59961 15.35C1.50345 14.3311 0.702039 13.0357 0.279609 11.6C-0.120391 9.83996 -0.0703913 8.99996 0.279609 8.29996C0.641507 7.70532 1.21192 7.26682 1.87961 7.06996C2.41961 6.96996 2.97961 7.00996 3.51961 7.18996C3.88961 7.33996 4.19961 7.58996 4.43961 7.91996C4.86961 8.49996 5.01961 8.77996 4.82961 8.13996C4.63961 7.50996 4.22961 7.03996 4.02961 6.26996C3.62961 5.36996 3.37961 4.38996 3.30961 3.40996C3.38961 2.50996 4.00961 1.76996 4.86961 1.52996" fill="white"/>
</svg>
