<svg width="533" height="317" viewBox="0 0 533 317" fill="none" xmlns="http://www.w3.org/2000/svg">
<g clip-path="url(#clip0_205_218)">
<path d="M49.4582 4.05903e-05H483.308C489.84 -0.00830726 496.31 1.27105 502.346 3.76482C508.383 6.2586 513.868 9.91779 518.486 14.5328C523.105 19.1478 526.768 24.628 529.263 30.6594C531.759 36.6908 533.04 43.155 533.031 49.6816V215.111C533.04 221.637 531.759 228.101 529.263 234.133C526.768 240.164 523.105 245.644 518.486 250.259C513.868 254.874 508.383 258.534 502.346 261.027C496.31 263.521 489.84 264.8 483.308 264.792H327.728L349.119 317L255.196 264.75H49.7227C43.1907 264.758 36.7211 263.479 30.6846 260.985C24.6482 258.491 19.1634 254.832 14.5446 250.217C9.92567 245.602 6.26341 240.122 3.76755 234.09C1.27169 228.059 -0.00873304 221.595 -0.000378202 215.068V49.6816C-0.0324289 43.1697 1.2234 36.7156 3.69497 30.6901C6.16655 24.6645 9.80518 19.1862 14.4019 14.5698C18.9986 9.95339 24.4628 6.28981 30.4806 3.78948C36.4985 1.28916 42.9514 0.00135419 49.4688 4.05903e-05H49.4582Z" fill="#7F54B3"/>
<path d="M30.3519 45.2419C33.3776 41.13 37.9267 38.963 43.9993 38.5296C55.0442 37.6769 61.3283 42.8741 62.8518 54.1211C69.5732 99.3631 76.8659 137.699 84.7299 169.129L132.178 78.8562C136.516 70.6323 141.933 66.3019 148.428 65.865C157.95 65.2202 163.811 71.2771 166.202 84.0464C171.618 112.841 178.548 137.301 186.779 158.04C192.421 103.073 201.942 63.3845 215.343 38.9736C218.591 32.9166 223.352 29.8829 229.636 29.4601C234.597 29.0501 239.519 30.6197 243.325 33.8257C245.264 35.2811 246.867 37.1357 248.026 39.264C249.186 41.3923 249.873 43.7445 250.043 46.1615C250.35 49.7562 249.616 53.3633 247.928 56.5524C239.464 72.1439 232.535 98.3377 226.906 134.7C221.49 169.995 219.501 197.489 220.844 217.151C221.372 222.065 220.468 227.028 218.242 231.442C215.639 236.209 211.735 238.841 206.753 239.232C201.124 239.666 195.274 237.066 189.646 231.231C169.46 210.646 153.499 179.896 141.763 138.981C127.658 166.69 117.258 187.479 110.565 201.348C97.7743 225.808 86.941 238.345 77.8427 239.021C71.9394 239.433 66.9671 234.455 62.6296 224.095C51.5847 195.71 39.6688 140.926 26.8818 59.7447C26.4175 57.2191 26.4862 54.6245 27.0838 52.1271C27.6814 49.6297 28.7945 47.2845 30.3519 45.2419ZM495.972 79.279C488.164 65.5902 476.686 57.3663 461.261 54.1211C457.436 53.2992 453.536 52.8741 449.623 52.8527C428.824 52.8527 411.929 63.6769 398.705 85.3254C387.44 103.683 381.574 124.838 381.778 146.37C381.778 163.044 385.244 177.331 392.177 189.234C399.974 202.88 411.464 211.104 426.846 214.349C430.694 215.184 434.619 215.616 438.557 215.639C459.568 215.639 476.463 204.815 489.465 183.166C500.715 164.705 506.577 143.47 506.392 121.857C506.583 104.997 502.901 90.9066 495.972 79.279ZM468.666 139.203C465.641 153.484 460.203 164.097 452.205 171.243C445.921 176.866 440.07 179.245 434.654 178.166C429.449 177.109 425.132 172.543 421.874 164.097C419.372 157.825 418.049 151.145 417.97 144.394C417.917 139.087 418.425 133.791 419.483 128.591C421.526 119.315 425.435 110.55 430.972 102.83C438.124 92.2597 445.699 87.894 453.506 89.4056C458.701 90.4627 463.028 95.0397 466.286 103.475C468.787 109.748 470.111 116.427 470.19 123.178C470.255 128.559 469.744 133.931 468.666 139.203ZM360.333 79.279C352.536 65.6325 340.836 57.4086 325.675 54.1634C321.831 53.3235 317.91 52.8842 313.975 52.8527C293.176 52.8527 276.27 63.6769 263.056 85.3254C251.791 103.683 245.925 124.838 246.129 146.37C246.129 163.044 249.596 177.331 256.529 189.234C264.326 202.88 275.804 211.104 291.187 214.349C295.042 215.185 298.974 215.617 302.919 215.639C323.94 215.639 340.836 204.815 353.838 183.166C365.087 164.705 370.95 143.47 370.765 121.857C370.733 104.997 367.274 90.9066 360.333 79.279ZM332.827 139.246C329.801 153.527 324.364 164.139 316.366 171.285C310.081 176.909 304.231 179.287 298.814 178.209C293.62 177.152 289.293 172.585 286.034 164.139C283.533 157.867 282.21 151.188 282.131 144.436C282.078 139.13 282.585 133.833 283.643 128.633C285.691 119.34 289.611 110.56 295.164 102.83C302.316 92.2597 309.891 87.894 317.699 89.4056C322.893 90.4627 327.22 95.0397 330.478 103.475C332.955 109.752 334.253 116.431 334.308 123.178C334.478 128.563 333.967 133.947 332.785 139.203L332.827 139.246Z" fill="white"/>
</g>
<defs>
<clipPath id="clip0_205_218">
<rect width="533" height="317" fill="white"/>
</clipPath>
</defs>
</svg>
