<svg width="317" height="317" viewBox="0 0 317 317" fill="none" xmlns="http://www.w3.org/2000/svg">
<g clip-path="url(#clip0_205_201)">
<path d="M158.5 0C70.969 0 0 70.969 0 158.5C0 246.031 70.969 317 158.5 317C246.031 317 317 246.031 317 158.5C317 70.969 246.031 0 158.5 0ZM274.408 95.1413C274.976 99.3463 275.285 103.861 275.285 108.711C275.285 122.1 272.783 137.165 265.25 156.023L224.903 272.654C264.167 249.772 290.583 207.206 290.583 158.5C290.583 135.54 284.727 113.948 274.408 95.1413ZM160.822 170.057L121.197 285.217C133.038 288.7 145.55 290.609 158.5 290.609C173.875 290.609 188.632 287.952 202.356 283.128C201.995 282.56 201.685 281.967 201.401 281.296L160.822 170.057ZM247.656 151.844C247.656 135.514 241.8 124.215 236.77 115.418C230.062 104.532 223.794 95.3219 223.794 84.4353C223.794 72.2847 233.003 60.9854 245.979 60.9854C246.573 60.9854 247.115 61.0627 247.682 61.0885C224.181 39.5476 192.862 26.4167 158.5 26.4167C112.348 26.4167 71.7687 50.0988 48.1382 85.9574C51.2339 86.0605 54.149 86.1121 56.6514 86.1121C70.453 86.1121 91.865 84.4353 91.865 84.4353C98.9851 84.0225 99.8106 94.4705 92.7163 95.3219C92.7163 95.3219 85.5704 96.1474 77.599 96.5859L125.686 239.659L154.605 152.979L134.018 96.5859C126.898 96.1732 120.165 95.3219 120.165 95.3219C113.045 94.9091 113.87 84.0225 120.99 84.4353C120.99 84.4353 142.789 86.1121 155.765 86.1121C169.567 86.1121 190.979 84.4353 190.979 84.4353C198.099 84.0225 198.925 94.4705 191.83 95.3219C191.83 95.3219 184.659 96.1474 176.713 96.5859L224.438 238.55L238.06 195.365C244.122 176.507 247.656 163.144 247.656 151.844ZM26.4167 158.5C26.4167 210.792 56.8062 255.963 100.868 277.375L37.845 104.738C30.5185 121.171 26.4167 139.332 26.4167 158.5ZM158.5 9.51929C178.622 9.51929 198.125 13.4663 216.493 21.2314C225.316 24.972 233.829 29.5898 241.8 34.9556C249.694 40.2957 257.124 46.4098 263.857 53.1429C270.59 59.8761 276.73 67.3057 282.044 75.1998C287.436 83.1712 292.054 91.6844 295.769 100.507C303.534 118.875 307.481 138.378 307.481 158.5C307.481 178.622 303.534 198.125 295.769 216.493C292.028 225.316 287.41 233.829 282.044 241.8C276.704 249.694 270.59 257.124 263.857 263.857C257.124 270.59 249.694 276.73 241.8 282.044C233.829 287.436 225.316 292.054 216.493 295.769C198.125 303.534 178.622 307.481 158.5 307.481C138.378 307.481 118.875 303.534 100.507 295.769C91.6844 292.028 83.1712 287.41 75.1998 282.044C67.3057 276.704 59.8761 270.59 53.1429 263.857C46.4098 257.124 40.2699 249.694 34.9556 241.8C29.564 233.829 24.9462 225.316 21.2314 216.493C13.4405 198.125 9.51929 178.622 9.51929 158.5C9.51929 138.378 13.4663 118.875 21.2314 100.507C24.972 91.6844 29.5898 83.1712 34.9556 75.1998C40.2957 67.3057 46.4098 59.8761 53.1429 53.1429C59.8761 46.4098 67.3057 40.2699 75.1998 34.9556C83.1712 29.564 91.6844 24.9462 100.507 21.2314C118.875 13.4405 138.378 9.51929 158.5 9.51929Z" fill="#8463FF"/>
</g>
<defs>
<clipPath id="clip0_205_201">
<rect width="317" height="317" fill="white"/>
</clipPath>
</defs>
</svg>
